<?xml version="1.0" standalone="no"?>
<!DOCTYPE svg PUBLIC "-//W3C//DTD SVG 1.1//EN" "http://www.w3.org/Graphics/SVG/1.1/DTD/svg11.dtd" >
<svg xmlns="http://www.w3.org/2000/svg" xmlns:xlink="http://www.w3.org/1999/xlink" version="1.1">
<metadata></metadata>
<defs>
<font id="amsi_pro_narwbold" horiz-adv-x="1107" >
<font-face units-per-em="2048" ascent="1536" descent="-512" />
<missing-glyph horiz-adv-x="483" />
<glyph unicode="&#xfb01;" horiz-adv-x="1097" d="M35 901v125q0 26 8.5 35.5t34.5 9.5h88v86q0 157 68 229t210 72q82 0 138 -18q36 -9 36 -45v-99q0 -43 -43 -43q-7 0 -31 3.5t-36 3.5q-48 0 -71 -27t-23 -94v-68h524q45 0 45 -45v-981q0 -45 -45 -45h-164q-45 0 -45 45v813h-313v-815q0 -43 -45 -43h-158q-25 0 -36 10 t-11 33v815h-88q-23 0 -33 10t-10 33zM729 1251v148q0 43 45 43h162q25 0 36 -10t11 -33v-148q0 -23 -11 -33t-36 -10h-162q-45 0 -45 43z" />
<glyph unicode="&#xfb02;" horiz-adv-x="1097" d="M35 901v125q0 45 43 45h88v49q0 123 39.5 196t134 109.5t258.5 36.5q93 0 190.5 -13t149.5 -28q25 -8 35 -18.5t10 -34.5v-1323q0 -45 -43 -45h-164q-45 0 -45 45v1204q-60 11 -135 11q-100 0 -141 -33t-41 -109v-47h121q45 0 45 -45v-123q0 -24 -10.5 -34.5t-34.5 -10.5 h-119v-815q0 -43 -45 -43h-158q-25 0 -36 10t-11 33v815h-88q-23 0 -33 10t-10 33z" />
<glyph unicode="&#xfb03;" horiz-adv-x="1660" d="M35 901v125q0 45 43 45h88v90q0 156 68.5 226.5t214.5 70.5q73 0 129 -18q19 -7 27.5 -16t8.5 -29v-99q0 -23 -9.5 -33.5t-29.5 -9.5l-25 3q-26 4 -42 4q-47 0 -69.5 -26.5t-22.5 -90.5v-72h315v90q0 156 68.5 226.5t214.5 70.5q74 0 133 -18q20 -7 28.5 -16t8.5 -29v-99 q0 -24 -9.5 -34t-31.5 -9q-7 1 -20 3t-25 3t-23 1q-49 0 -71.5 -26.5t-22.5 -90.5v-72h520q45 0 45 -45v-981q0 -45 -45 -45h-162q-45 0 -45 45v813h-313v-815q0 -43 -45 -43h-160q-45 0 -45 43v815h-315v-815q0 -43 -45 -43h-158q-25 0 -36 10t-11 33v815h-88q-23 0 -33 10 t-10 33zM1294 1251v148q0 43 45 43h164q23 0 33 -10t10 -33v-148q0 -23 -10 -33t-33 -10h-164q-45 0 -45 43z" />
<glyph unicode="&#xfb04;" horiz-adv-x="1662" d="M35 901v125q0 45 43 45h88v90q0 156 68.5 226.5t214.5 70.5q70 0 129 -18q19 -7 27.5 -16t8.5 -29v-99q0 -23 -9.5 -33.5t-29.5 -9.5l-25 3q-26 4 -42 4q-47 0 -69.5 -26.5t-22.5 -90.5v-72h315v49q0 184 95.5 263t338.5 79q91 0 189 -13t149 -28q26 -8 35.5 -18.5 t9.5 -34.5v-1323q0 -24 -10.5 -34.5t-34.5 -10.5h-162q-24 0 -34.5 10.5t-10.5 34.5v1204q-64 11 -135 11q-100 0 -140 -33t-40 -109v-47h119q45 0 45 -45v-123q0 -24 -10.5 -34.5t-34.5 -10.5h-119v-815q0 -43 -45 -43h-160q-45 0 -45 43v815h-315v-815q0 -43 -45 -43h-158 q-25 0 -36 10t-11 33v815h-88q-23 0 -33 10t-10 33z" />
<glyph horiz-adv-x="0" />
<glyph horiz-adv-x="682" />
<glyph unicode=" "  horiz-adv-x="483" />
<glyph unicode="&#x09;" horiz-adv-x="483" />
<glyph unicode="&#xa0;" horiz-adv-x="483" />
<glyph unicode="!" horiz-adv-x="548" d="M127 1395q-3 47 45 47h205q50 0 47 -47l-43 -916q-3 -45 -47 -45h-117q-44 0 -47 45zM137 47v193q0 45 47 45h181q47 0 47 -45v-193q0 -47 -45 -47h-183q-47 0 -47 47z" />
<glyph unicode="&#x22;" horiz-adv-x="718" d="M90 1397q0 48 25 70t84 22q57 0 81.5 -22t24.5 -70q0 -61 -10 -123l-49 -342h-94l-52 342q-10 62 -10 123zM414 1397q0 48 24.5 70t83.5 22q58 0 82.5 -22t24.5 -70q0 -55 -11 -123l-49 -342h-96l-49 342q-10 93 -10 123z" />
<glyph unicode="#" horiz-adv-x="1165" d="M31 440v66q0 47 45 47h164l88 334h-123q-43 0 -43 45v67q0 45 43 45h166l100 381q12 42 53 31l78 -20q45 -11 33 -56l-90 -336h248l102 381q12 42 53 31l78 -20q42 -12 31 -56l-88 -336h121q45 0 45 -45v-67q0 -45 -45 -45h-164l-90 -334h122q46 0 46 -47v-66 q0 -45 -46 -45h-163l-99 -377q-12 -44 -55 -32l-76 22q-45 11 -33 53l89 334h-250l-99 -377q-12 -44 -55 -32l-76 22q-43 12 -32 53l88 334h-121q-24 0 -34.5 10.5t-10.5 34.5zM412 553h252l86 334h-248z" />
<glyph unicode="$" horiz-adv-x="1034" d="M80 100l31 131q9 48 61 31q138 -47 258 -47q264 0 264 174q0 38 -14.5 68t-47.5 56.5t-66.5 47t-89.5 50.5q-23 12 -34 18q-55 27 -90 47t-81.5 51t-76 63.5t-57 75t-40.5 95.5t-13 116q0 339 360 379v139q0 41 45 41h78q43 0 43 -41v-135q71 -3 145 -17.5t113 -29.5 q24 -9 32.5 -22t2.5 -37l-31 -129q-6 -25 -19.5 -33.5t-41.5 0.5q-109 37 -229 37q-228 0 -228 -158q0 -23 8 -44.5t17.5 -38t33 -37t37 -31.5t48 -31.5t48.5 -28t54 -29.5q53 -28 84 -45.5t75 -46t69.5 -51.5t55 -57t45 -68.5t26 -79.5t10.5 -96q0 -333 -349 -393v-146 q0 -43 -43 -43h-77q-45 0 -45 43v136q-96 1 -188.5 18t-143.5 39q-26 10 -35.5 22t-3.5 37z" />
<glyph unicode="%" horiz-adv-x="1710" d="M61 1034q0 205 82 313.5t236 108.5q155 0 237 -108.5t82 -313.5q0 -204 -82 -313t-237 -109q-154 0 -236 109t-82 313zM258 1034q0 -131 30 -190.5t91 -59.5q64 0 93.5 59t29.5 191q0 131 -30 191.5t-93 60.5q-121 0 -121 -252zM395 45l719 1360q18 37 60 37h118 q21 0 27 -11.5t-4 -31.5l-721 -1362q-19 -37 -57 -37h-119q-45 0 -23 45zM1010 408q0 205 82.5 314t236.5 109t237 -109t83 -314q0 -203 -83 -311.5t-237 -108.5t-236.5 108t-82.5 312zM1208 408q0 -131 29.5 -190.5t91.5 -59.5t92.5 60t30.5 190q0 132 -30 191.5t-93 59.5 q-62 0 -91.5 -59.5t-29.5 -191.5z" />
<glyph unicode="&#x26;" horiz-adv-x="1308" d="M74 430q0 160 81 271.5t222 158.5l-33 47q-51 71 -73.5 130.5t-22.5 131.5q0 136 92 215.5t291 79.5q120 0 221 -37q49 -16 41 -57l-21 -102q-9 -49 -63 -33q-68 20 -143 20q-179 0 -179 -112q0 -47 21.5 -87.5t64.5 -94.5l394 -521q30 80 30 162q0 25 -7.5 62.5 t-8.5 52.5q0 39 43 39h133q31 0 43 -39q10 -58 10 -125q0 -192 -98 -338l162 -207q13 -19 7 -33t-26 -14h-186q-30 0 -47 20l-64 82q-139 -118 -368 -118q-234 0 -375 114.5t-141 331.5zM336 446q0 -109 72.5 -175t205.5 -66q137 0 211 67l-321 422q-168 -67 -168 -248z" />
<glyph unicode="'" horiz-adv-x="395" d="M90 1397q0 48 25 70t84 22q57 0 81.5 -22t24.5 -70q0 -61 -10 -123l-49 -342h-94l-52 342q-10 62 -10 123z" />
<glyph unicode="(" horiz-adv-x="657" d="M119 610q0 234 80.5 449.5t206.5 376.5q22 26 53 26h119q23 0 29 -16t-5 -31q-102 -160 -165.5 -374t-63.5 -431q0 -212 64 -422.5t165 -377.5q11 -17 5 -33.5t-29 -16.5h-119q-32 0 -53 25q-126 163 -206.5 377.5t-80.5 447.5z" />
<glyph unicode=")" horiz-adv-x="657" d="M52.5 -223.5q-5.5 16.5 4.5 33.5q100 169 165 379.5t65 420.5q0 217 -64 431t-166 374q-10 15 -4.5 31t27.5 16h121q31 0 53 -26q125 -161 205 -376t80 -450q0 -233 -79.5 -448t-205.5 -377q-21 -25 -53 -25h-121q-22 0 -27.5 16.5z" />
<glyph unicode="*" horiz-adv-x="798" d="M76 991q7 22 43 43q23 13 93.5 36t102.5 38q-26 11 -99 36.5t-97 39.5q-35 21 -42 42t13 60q23 37 47.5 44t57.5 -13q24 -14 79 -64.5t82 -70.5q-3 30 -17.5 105t-14.5 102q0 41 16 58t59 17t59.5 -17t16.5 -58q0 -27 -15 -101.5t-18 -105.5q26 19 83 68.5t81 64.5 q34 21 57.5 14t45.5 -43q20 -38 13.5 -61t-42.5 -43q-23 -14 -95.5 -38t-99.5 -36q30 -14 101.5 -38.5t93.5 -37.5q36 -21 43 -42t-14 -60q-23 -37 -47 -43t-56 14q-25 15 -82.5 64.5t-79.5 66.5q3 -34 18 -107t15 -100q0 -39 -16.5 -56t-59.5 -17q-44 0 -60.5 16.5 t-16.5 56.5q0 27 14.5 100t17.5 107q-21 -16 -78.5 -66.5t-82.5 -64.5q-33 -21 -57.5 -15t-47.5 44q-21 39 -14 61z" />
<glyph unicode="+" d="M96 653v123q0 43 45 43h295v324q0 45 45 45h146q23 0 33 -10t10 -35v-324h297q45 0 45 -43v-123q0 -43 -45 -43h-297v-331q0 -46 -43 -46h-146q-45 0 -45 46v331h-297q-43 0 -43 43z" />
<glyph unicode="," horiz-adv-x="454" d="M96 47v186q0 46 47 46h168q47 0 47 -46v-170q0 -32 -10 -57l-94 -211q-6 -14 -14.5 -20t-26.5 -6h-61q-17 0 -23 12t0 29l61 190h-49q-45 0 -45 47z" />
<glyph unicode="-" horiz-adv-x="688" d="M72 506v123q0 23 10 33t33 10h456q45 0 45 -43v-123q0 -43 -45 -43h-456q-23 0 -33 10t-10 33z" />
<glyph unicode="." horiz-adv-x="454" d="M96 47v186q0 46 47 46h168q47 0 47 -46v-186q0 -47 -45 -47h-172q-45 0 -45 47z" />
<glyph unicode="/" horiz-adv-x="792" d="M18 53l508 1348q16 41 60 41h151q56 0 37 -53l-508 -1348q-8 -21 -20.5 -31t-36.5 -10h-154q-27 0 -36.5 14.5t-0.5 38.5z" />
<glyph unicode="0" horiz-adv-x="1196" d="M90 721q0 743 508 743q506 0 506 -741t-506 -741q-508 0 -508 739zM360 721q0 -269 59 -387.5t179 -118.5t179 118.5t59 387.5q0 270 -59 389t-179 119t-179 -119t-59 -389z" />
<glyph unicode="1" horiz-adv-x="874" d="M59 1096q-24 27 7 51l331 276q25 19 64 19h172q49 0 49 -47v-1346q0 -49 -49 -49h-170q-25 0 -36 11.5t-11 37.5v1100l-211 -162q-29 -20 -53 4z" />
<glyph unicode="2" horiz-adv-x="1099" d="M86 47v109q0 22 7.5 34t27.5 25q84 59 161.5 123t160.5 149t143.5 168.5t99.5 180.5t39 186q0 215 -195 215q-101 0 -146.5 -52t-45.5 -132q0 -23 4 -55.5t4 -45.5q0 -39 -43 -39h-156q-21 0 -30.5 12.5t-14.5 39.5q-8 39 -8 98q0 180 113.5 290.5t329.5 110.5 q122 0 212.5 -33.5t142.5 -93.5t76.5 -134t24.5 -163q0 -98 -35 -200t-88 -186.5t-126 -168.5t-139 -144t-136 -114h489q48 0 48 -47v-133q0 -47 -48 -47h-825q-25 0 -36 11t-11 36z" />
<glyph unicode="3" horiz-adv-x="1032" d="M51 96l31 133q8 44 55 31q50 -16 76 -23.5t87.5 -17.5t121.5 -10q133 0 196.5 55t63.5 174q0 105 -55.5 153t-165.5 48h-129q-47 0 -47 45v125q0 45 47 45h119q202 0 202 197q0 186 -221 186q-126 0 -276 -49q-45 -14 -54 29l-30 126q-6 22 1.5 34.5t30.5 21.5 q159 65 361 65q98 0 177.5 -21t141 -64.5t95.5 -116t34 -168.5q0 -245 -182 -320q96 -31 155.5 -115.5t59.5 -232.5q0 -226 -124.5 -335t-370.5 -109q-110 0 -209 19t-158 44q-21 8 -29 19t-4 32z" />
<glyph unicode="4" horiz-adv-x="1163" d="M61 352v129q0 33 19 60l582 870q21 31 57 31h178q47 0 47 -47v-871h141q45 0 45 -47v-125q0 -47 -45 -47h-141v-256q0 -49 -47 -49h-168q-25 0 -36 11.5t-11 37.5v256h-576q-45 0 -45 47zM291 524h391v592z" />
<glyph unicode="5" horiz-adv-x="1056" d="M59 102l31 129q8 44 55 31q167 -53 285 -53q143 0 211 63.5t68 196.5q0 119 -54.5 177.5t-181.5 58.5q-62 0 -114.5 -10.5t-86.5 -21.5t-51 -11q-12 0 -33 6l-63 24q-15 6 -19 15.5t-2 31.5q27 315 35 656q0 25 11 36t36 11h664q47 0 47 -45v-135q0 -45 -47 -45h-492 q-9 -208 -20 -336q85 30 201 30q434 0 434 -440q0 -247 -133.5 -368t-386.5 -121q-112 0 -208 18.5t-153 44.5q-22 10 -30.5 22t-2.5 35z" />
<glyph unicode="6" horiz-adv-x="1140" d="M90 682q0 395 128 588.5t425 193.5q71 0 142 -13t110 -30q24 -8 33.5 -18.5t5.5 -30.5l-25 -131q-5 -24 -17 -31.5t-38 -1.5q-116 33 -190 33q-165 0 -238 -103t-82 -323q88 146 307 146q105 0 185.5 -36t129.5 -100.5t73 -148t24 -184.5q0 -233 -121.5 -371.5 t-337.5 -138.5q-514 0 -514 700zM369 487q0 -51 13 -99t39.5 -90t72 -67.5t104.5 -25.5q105 0 161 75.5t56 208.5q0 119 -53 192t-166 73q-109 0 -168 -66t-59 -201z" />
<glyph unicode="7" horiz-adv-x="1013" d="M61 1264v131q0 47 50 47h788q25 0 36 -11t11 -36v-119q0 -31 -31 -72q-100 -149 -185 -332t-146 -406.5t-64 -418.5q0 -25 -11.5 -36t-37.5 -11h-178q-50 0 -47 47q27 299 150 634.5t270 535.5h-555q-50 0 -50 47z" />
<glyph unicode="8" horiz-adv-x="1134" d="M82 373q0 283 274 375q-117 47 -181 134t-64 212q0 177 118.5 273.5t337.5 96.5q220 0 338.5 -96t118.5 -274q0 -124 -64 -211.5t-180 -134.5q275 -94 275 -375q0 -182 -124.5 -287.5t-363.5 -105.5q-238 0 -361.5 105.5t-123.5 287.5zM344 393q0 -94 56.5 -147 t166.5 -53t167 53t57 147q0 186 -224 260q-223 -73 -223 -260zM367 1087q0 -93 49.5 -151t150.5 -96q101 39 151 96.5t50 150.5q0 175 -201 175q-200 0 -200 -175z" />
<glyph unicode="9" horiz-adv-x="1140" d="M78 950q0 235 121.5 373.5t337.5 138.5q512 0 512 -704q0 -195 -28.5 -336t-91.5 -242t-168.5 -150.5t-256.5 -49.5q-72 0 -143.5 12t-112.5 28q-22 8 -30.5 20t-4.5 34l25 129q3 22 15 29t38 1q112 -32 190 -32q163 0 236 98t84 315q-38 -60 -116.5 -96.5t-195.5 -36.5 q-105 0 -185.5 36t-129 100.5t-72.5 148t-24 184.5zM326 954q0 -121 52.5 -193.5t166.5 -72.5q109 0 168 65.5t59 200.5q0 75 -22 136.5t-75.5 104t-131.5 42.5q-105 0 -161 -75.5t-56 -207.5z" />
<glyph unicode=":" horiz-adv-x="518" d="M129 47v186q0 46 45 46h168q47 0 47 -46v-186q0 -47 -45 -47h-170q-24 0 -34.5 11t-10.5 36zM129 864v187q0 47 45 47h168q47 0 47 -47v-187q0 -24 -10.5 -34.5t-34.5 -10.5h-170q-25 0 -35 10t-10 35z" />
<glyph unicode=";" horiz-adv-x="518" d="M129 47v186q0 46 45 46h168q47 0 47 -46v-170q0 -32 -10 -57l-94 -211q-6 -14 -14.5 -20t-26.5 -6h-60q-35 0 -24 41l63 190h-49q-24 0 -34.5 11t-10.5 36zM129 864v187q0 47 47 47h166q47 0 47 -47v-187q0 -24 -10.5 -34.5t-34.5 -10.5h-170q-25 0 -35 10t-10 35z" />
<glyph unicode="&#x3c;" d="M119 713q0 23 20 41l647 563q37 32 66 -2l88 -98q31 -36 -4 -64l-514 -440l514 -441q31 -27 4 -61l-88 -102q-30 -33 -64 -3l-649 566q-20 18 -20 41z" />
<glyph unicode="=" d="M125 444v117q0 43 45 43h768q45 0 45 -43v-117q0 -43 -45 -43h-770q-43 0 -43 43zM125 868v117q0 45 45 45h768q45 0 45 -45v-117q0 -43 -45 -43h-770q-43 0 -43 43z" />
<glyph unicode="&#x3e;" d="M155 243q0 14 17 29l516 441l-516 440q-31 27 -2 64l84 98q28 32 61 4l654 -565q22 -19 22 -41t-22 -41l-654 -566q-34 -27 -61 3l-84 102q-15 18 -15 32z" />
<glyph unicode="?" horiz-adv-x="929" d="M61 1350q-4 21 3.5 31t29.5 20q148 63 330 63q207 0 313.5 -90t106.5 -258q0 -88 -28 -165.5t-68 -131.5t-79.5 -101t-67.5 -95.5t-28 -94.5v-49q0 -45 -45 -45h-145q-47 0 -47 47v49q0 54 25 109.5t61 104t72 98t61 110t25 121.5q0 79 -46.5 119.5t-150.5 40.5 q-26 0 -53 -2.5t-44 -5t-43.5 -9.5t-34.5 -9t-34 -11l-27 -8q-46 -14 -55 26zM313 47v193q0 45 47 45h181q47 0 47 -45v-193q0 -47 -47 -47h-183q-45 0 -45 47z" />
<glyph unicode="@" horiz-adv-x="1751" d="M115 432q0 372 219 590.5t592 218.5q184 0 322.5 -44t223.5 -126.5t126.5 -193t41.5 -250.5q0 -256 -112.5 -407.5t-310.5 -151.5h-115q-48 0 -53 34l-15 103q-39 -67 -104 -104.5t-146 -37.5q-142 0 -226.5 93.5t-84.5 257.5q0 110 27.5 203t85 169.5t156 120 t229.5 43.5q79 0 155.5 -17t122.5 -40q33 -15 29 -43l-90 -643h39q132 0 199 108.5t67 313.5q0 237 -133.5 358t-435.5 121q-308 0 -484 -178t-176 -498q0 -283 154.5 -406.5t484.5 -123.5q178 0 369 49q28 6 33 -25l12 -65q5 -24 -23 -31q-66 -22 -174 -40.5t-217 -18.5 q-389 0 -588.5 157.5t-199.5 503.5zM690 432q0 -91 34.5 -140.5t102.5 -49.5q156 0 191 229l41 289q-44 14 -101 14q-71 0 -124 -27.5t-83.5 -76t-45.5 -108t-15 -130.5z" />
<glyph unicode="A" horiz-adv-x="1193" d="M41 53l375 1342q6 25 20 36t43 11h236q30 0 43.5 -11t19.5 -36l375 -1342q6 -24 -4.5 -38.5t-34.5 -14.5h-180q-24 0 -36.5 10.5t-18.5 34.5l-74 272h-416l-72 -272q-6 -24 -18.5 -34.5t-36.5 -10.5h-182q-23 0 -34 15t-5 38zM438 551h316l-154 623h-4z" />
<glyph unicode="B" horiz-adv-x="1198" d="M121 49v1346q0 47 49 47h432q243 0 361 -86t118 -285q0 -127 -50.5 -202t-127.5 -105q97 -29 157 -114.5t60 -231.5q0 -219 -127 -318.5t-372 -99.5h-451q-49 0 -49 49zM387 227h215q138 0 195 45.5t57 159.5q0 109 -56 156t-190 47h-221v-408zM387 848h207 q120 0 172.5 44.5t52.5 145.5q0 99 -51 139t-174 40h-207v-369z" />
<glyph unicode="C" horiz-adv-x="1054" d="M86 723q0 394 138.5 567.5t424.5 173.5q86 0 164.5 -16.5t124.5 -40.5q25 -11 34 -24t3 -35l-33 -127q-9 -35 -40 -35q-10 0 -23 4q-85 33 -185 33q-181 0 -258.5 -112t-77.5 -388q0 -278 78.5 -390t265.5 -112q94 0 189 37q28 8 41.5 0.5t19.5 -33.5l37 -127 q6 -22 -4 -35t-35 -24q-129 -59 -293 -59q-144 0 -248 40.5t-177.5 128t-109.5 230.5t-36 344z" />
<glyph unicode="D" horiz-adv-x="1198" d="M121 49v1346q0 47 49 47h342q153 0 263 -36.5t188.5 -118.5t116.5 -219t38 -333q0 -206 -37.5 -348.5t-116 -227.5t-187 -122t-261.5 -37h-346q-49 0 -49 49zM391 242h119q69 0 120 13.5t93 46.5t67.5 89t39.5 141t14 203q0 110 -14.5 190.5t-40.5 133.5t-69 84.5t-94 44 t-120 12.5h-115v-958z" />
<glyph unicode="E" horiz-adv-x="989" d="M121 49v1346q0 47 49 47h686q47 0 47 -47v-142q0 -49 -47 -49h-469v-354h447q47 0 47 -49v-131q0 -49 -47 -49h-447v-383h475q49 0 49 -48v-141q0 -49 -49 -49h-692q-49 0 -49 49z" />
<glyph unicode="F" horiz-adv-x="960" d="M121 49v1346q0 47 51 47h678q47 0 47 -45v-144q0 -49 -47 -49h-461v-381h442q50 0 50 -49v-137q0 -47 -50 -47h-442v-541q0 -49 -49 -49h-168q-51 0 -51 49z" />
<glyph unicode="G" horiz-adv-x="1202" d="M86 723q0 270 69 434.5t202 235.5t345 71q171 0 314 -63q26 -12 35.5 -24.5t3.5 -35.5l-33 -127q-9 -35 -40 -35q-11 0 -26 5q-125 39 -221 39q-143 0 -223.5 -47t-117 -154.5t-36.5 -298.5t36.5 -302t111 -157.5t199.5 -46.5q74 0 143 25v403h-172q-49 0 -49 47v123 q0 47 49 47h371q49 0 49 -47v-684q0 -51 -45 -74q-57 -34 -154.5 -55.5t-218.5 -21.5q-150 0 -257.5 39t-184 125.5t-113.5 230t-37 348.5z" />
<glyph unicode="H" horiz-adv-x="1218" d="M121 49v1346q0 47 49 47h172q49 0 49 -47v-537h436v537q0 47 50 47h172q25 0 36 -11t11 -36v-1346q0 -26 -11 -37.5t-36 -11.5h-172q-50 0 -50 49v563h-436v-563q0 -49 -49 -49h-172q-49 0 -49 49z" />
<glyph unicode="I" horiz-adv-x="534" d="M133 49v1346q0 25 11 36t36 11h174q47 0 47 -47v-1346q0 -49 -47 -49h-174q-25 0 -36 11.5t-11 37.5z" />
<glyph unicode="J" horiz-adv-x="821" d="M39 92l31 133q8 36 35 36q8 0 18 -3q86 -31 151 -31q84 0 124 50t40 165v953q0 25 11 36t36 11h174q48 0 48 -47v-983q0 -224 -96 -326t-296 -102q-146 0 -237 43q-26 12 -35.5 25.5t-3.5 39.5z" />
<glyph unicode="K" horiz-adv-x="1120" d="M121 49v1346q0 47 49 47h172q49 0 49 -47v-500l377 508q28 39 68 39h200q27 0 36 -19t-7 -39l-459 -608l471 -717q16 -22 7.5 -40.5t-35.5 -18.5h-205q-43 0 -66 45l-387 594v-590q0 -49 -49 -49h-172q-49 0 -49 49z" />
<glyph unicode="L" horiz-adv-x="937" d="M121 49v1346q0 47 49 47h172q49 0 49 -47v-1149h430q49 0 49 -47v-150q0 -49 -49 -49h-651q-49 0 -49 49z" />
<glyph unicode="M" horiz-adv-x="1425" d="M121 49v1346q0 47 49 47h162q41 0 57 -31l324 -643l323 643q16 31 60 31h159q50 0 50 -47v-1346q0 -49 -50 -49h-168q-47 0 -47 49v909l-282 -563q-12 -28 -45 -28t-45 28l-283 563v-909q0 -49 -47 -49h-168q-49 0 -49 49z" />
<glyph unicode="N" horiz-adv-x="1234" d="M121 49v1346q0 47 49 47h164q25 0 38.5 -7.5t22.5 -27.5l457 -909v897q0 47 47 47h166q49 0 49 -45v-1348q0 -49 -49 -49h-164q-26 0 -39 8t-22 29l-457 907v-895q0 -49 -47 -49h-166q-49 0 -49 49z" />
<glyph unicode="O" horiz-adv-x="1245" d="M84 721q0 200 35.5 343t105.5 231t168 128.5t230 40.5t229.5 -40.5t168 -128.5t105.5 -231t35 -343t-35 -343t-105.5 -230t-168 -127.5t-229.5 -40.5t-230 40.5t-168 127.5t-105.5 230t-35.5 343zM358 721q0 -274 63.5 -389t201.5 -115t201 115t63 389t-63 390t-201 116 t-201.5 -116t-63.5 -390z" />
<glyph unicode="P" horiz-adv-x="1148" d="M121 49v1346q0 47 49 47h365q280 0 405 -116t125 -396t-125 -396t-405 -116h-146v-369q0 -49 -47 -49h-172q-49 0 -49 49zM389 655h143q145 0 203 59t58 216q0 156 -58 215t-203 59h-143v-549z" />
<glyph unicode="Q" horiz-adv-x="1243" d="M84 727q0 197 35 339t105 229.5t168.5 128t230.5 40.5q105 0 188.5 -25.5t150 -81t110.5 -141t67 -208.5q22 -118 22 -268v-13q-1 -278 -85.5 -448t-237.5 -230q70 -26 147 -26q17 0 40 2t30 2q23 2 33 -6.5t10 -30.5v-121q0 -28 -14.5 -39.5t-49.5 -11.5q-122 0 -247 44 t-228 134q-237 19 -356 192.5t-119 538.5zM358 727q0 -271 63.5 -386.5t201.5 -115.5t201 115t63 387q0 268 -63.5 384t-202.5 116q-136 0 -199.5 -115.5t-63.5 -384.5z" />
<glyph unicode="R" horiz-adv-x="1155" d="M121 49v1346q0 47 49 47h381q275 0 399.5 -112.5t124.5 -375.5q0 -363 -289 -438l277 -457q14 -23 6.5 -41t-35.5 -18h-184q-27 0 -41 9t-27 30l-260 438h-133v-428q0 -49 -47 -49h-172q-49 0 -49 49zM389 707h160q143 0 198.5 56t55.5 191q0 141 -56.5 195.5 t-199.5 54.5h-158v-497z" />
<glyph unicode="S" horiz-adv-x="1001" d="M72 94l30 131q7 38 37 38q11 0 25 -5q118 -43 250 -43q248 0 248 168q0 40 -14.5 72.5t-50.5 63.5t-70 52.5t-99 57.5q-63 33 -105 58t-91 66t-78 83.5t-48.5 104.5t-19.5 136q0 194 111.5 290.5t345.5 96.5q167 0 297 -49q26 -10 35.5 -21.5t3.5 -35.5l-31 -129 q-7 -37 -38 -37q-10 0 -24 4q-101 33 -217 33q-111 0 -161 -36.5t-50 -119.5q0 -39 16 -72.5t51.5 -63.5t68 -51t88.5 -52q51 -29 81.5 -47t73 -46.5t67 -52.5t52.5 -58.5t43 -69.5t25 -81.5t10 -99.5q0 -201 -129.5 -299t-349.5 -98q-99 0 -194 15.5t-148 37.5 q-27 11 -36 23t-5 36z" />
<glyph unicode="T" horiz-adv-x="970" d="M47 1247v148q0 47 49 47h778q50 0 50 -47v-148q0 -49 -50 -49h-253v-1149q0 -49 -50 -49h-172q-49 0 -49 49v1149h-254q-49 0 -49 49z" />
<glyph unicode="U" horiz-adv-x="1198" d="M115 469v926q0 47 47 47h172q26 0 37.5 -11t11.5 -36v-897q0 -142 50.5 -208.5t166.5 -66.5t165.5 66t49.5 207v899q0 47 47 47h174q25 0 36 -11t11 -36v-926q0 -249 -118.5 -369t-364.5 -120q-247 0 -366 120t-119 369z" />
<glyph unicode="V" horiz-adv-x="1179" d="M47 1389q-6 25 4 39t35 14h188q24 0 36 -10.5t18 -34.5l194 -799l64 -317h6l63 317l195 799q6 24 18.5 34.5t36.5 10.5h189q39 0 39 -33q0 -9 -3 -20l-358 -1338q-15 -51 -63 -51h-240q-26 0 -39.5 12t-21.5 39z" />
<glyph unicode="W" horiz-adv-x="1832" d="M57 1389q-2 10 -2 19q0 34 39 34h187q23 0 35 -10.5t18 -34.5l149 -723l64 -350h6l70 352l153 721q6 45 58 45h165q48 0 60 -45l151 -721l70 -352h6l66 350l147 723q9 45 55 45h185q40 0 40 -38q0 -7 -1 -15l-308 -1338q-12 -51 -61 -51h-219q-50 0 -62 51l-143 617 l-67 336h-5l-67 -336l-139 -617q-12 -51 -64 -51h-217q-27 0 -41.5 12t-22.5 39z" />
<glyph unicode="X" horiz-adv-x="1142" d="M48 18.5q-9 18.5 3 38.5l369 672l-361 657q-11 20 -3 38t32 18h191q45 0 65 -41l229 -445l226 445q11 22 25 31.5t40 9.5h191q25 0 33.5 -18.5t-3.5 -37.5l-362 -655l371 -674q11 -22 2 -39.5t-33 -17.5h-186q-27 0 -42 10t-26 33l-238 459l-237 -459q-21 -43 -66 -43 h-186q-25 0 -34 18.5z" />
<glyph unicode="Y" horiz-adv-x="1155" d="M43 1423q9 19 37 19h184q46 0 62 -43l178 -424l71 -205h3l73 205l178 424q16 43 62 43h184q28 0 37 -19t-2 -39l-397 -845v-490q0 -49 -49 -49h-175q-47 0 -47 49v490l-397 845q-11 20 -2 39z" />
<glyph unicode="Z" horiz-adv-x="1052" d="M84 49v141q0 38 25 74l538 934h-495q-48 0 -48 49v148q0 47 48 47h753q47 0 47 -47v-142q0 -36 -24 -75l-535 -934h525q25 0 36 -11t11 -36v-148q0 -26 -11 -37.5t-36 -11.5h-785q-49 0 -49 49z" />
<glyph unicode="[" horiz-adv-x="657" d="M164 -180v1579q0 43 45 43h336q23 0 33 -10t10 -33v-109q0 -45 -43 -45h-142v-1274h142q23 0 33 -10t10 -33v-108q0 -45 -43 -45h-336q-45 0 -45 45z" />
<glyph unicode="\" horiz-adv-x="792" d="M18 1389q-19 53 37 53h154q24 0 36.5 -10t20.5 -31l508 -1348q17 -53 -37 -53h-151q-44 0 -60 41z" />
<glyph unicode="]" horiz-adv-x="661" d="M72 -72q0 43 45 43h141v1274h-141q-45 0 -45 45v109q0 43 45 43h334q25 0 35 -10t10 -33v-1579q0 -24 -10.5 -34.5t-34.5 -10.5h-334q-45 0 -45 45v108z" />
<glyph unicode="^" d="M99 724q-9 15 3 40l322 641q16 37 59 37h142q24 0 37 -8.5t22 -28.5l322 -641q12 -25 2.5 -40t-35.5 -15h-148q-24 0 -36 8.5t-23 30.5l-213 438l-211 -438q-20 -39 -59 -39h-150q-25 0 -34 15z" />
<glyph unicode="_" horiz-adv-x="935" d="M35 -121q0 45 45 45h776q45 0 45 -45v-59q0 -45 -45 -45h-776q-45 0 -45 45v59z" />
<glyph unicode="`" horiz-adv-x="632" d="M120 1429q5 17 27 17h197q38 0 51 -33l80 -168q7 -15 0 -26t-26 -11h-101q-34 0 -59 25l-160 164q-14 15 -9 32z" />
<glyph unicode="a" horiz-adv-x="997" d="M59 305q0 74 19 132t57 97.5t87.5 66.5t119.5 42.5t142.5 23t166.5 9.5v67q0 87 -43.5 125.5t-142.5 38.5q-118 0 -258 -51q-10 -3 -18 -3q-28 0 -35 34l-23 119q-1 6 -1 12q0 28 32 41q57 25 151.5 41t184.5 16q208 0 302.5 -86.5t94.5 -267.5v-717q0 -45 -45 -45h-135 q-44 0 -47 39l-6 94q-86 -147 -300 -147q-141 0 -222 82.5t-81 236.5zM301 319q0 -70 34.5 -109.5t104.5 -39.5q103 0 157 64t54 165v117q-71 -3 -119 -8t-95.5 -17.5t-74.5 -33.5t-44 -55.5t-17 -82.5z" />
<glyph unicode="b" horiz-adv-x="1110" d="M113 45v1354q0 43 45 43h164q45 0 45 -43v-426q32 65 108.5 105t171.5 40q389 0 389 -569q0 -567 -391 -567q-97 0 -175 40.5t-110 110.5l-6 -94q-3 -39 -47 -39h-149q-45 0 -45 45zM365 549q0 -356 213 -356q104 0 152 82.5t48 273.5t-48 273.5t-152 82.5 q-213 0 -213 -356z" />
<glyph unicode="c" horiz-adv-x="868" d="M74 551q0 285 117.5 426t338.5 141q74 0 140 -13t102 -32q35 -15 35 -43q0 -6 -2 -14l-33 -119q-7 -29 -35 -29q-10 0 -24 4q-77 25 -144 25q-122 0 -179.5 -81t-57.5 -265q0 -185 57.5 -267.5t175.5 -82.5q76 0 160 30q13 5 24 5q25 0 31 -29l31 -121q4 -21 -3 -32.5 t-30 -22.5q-35 -19 -103 -34t-132 -15q-228 0 -348.5 141t-120.5 428z" />
<glyph unicode="d" horiz-adv-x="1110" d="M76 549q0 569 389 569q94 0 170.5 -40t107.5 -105v426q0 43 48 43h161q45 0 45 -43v-1354q0 -45 -45 -45h-149q-44 0 -47 39l-4 94q-33 -70 -112 -110.5t-177 -40.5q-387 0 -387 567zM332 549q0 -190 49 -273t154 -83q213 0 213 356t-213 356q-105 0 -154 -83t-49 -273z " />
<glyph unicode="e" horiz-adv-x="1009" d="M74 549q0 284 114 426.5t330 142.5q210 0 314 -134.5t104 -377.5v-110q0 -26 -11 -36.5t-36 -10.5h-565q21 -269 276 -269q116 0 213 41q12 5 22 5q27 0 37 -36l23 -100q4 -22 -4.5 -34.5t-30.5 -22.5q-128 -53 -280 -53q-506 0 -506 569zM319 621h383v16q0 285 -182 285 q-96 0 -145 -71.5t-56 -229.5z" />
<glyph unicode="f" horiz-adv-x="657" d="M35 901v125q0 45 43 45h88v80q0 165 70 236t223 71q83 0 135 -18q33 -10 35 -45v-105q0 -43 -36 -43h-5q-36 4 -70 4q-57 0 -79.5 -27t-22.5 -96v-57h166q43 0 43 -45v-123q0 -25 -10 -35t-33 -10h-166v-815q0 -43 -45 -43h-158q-25 0 -36 10t-11 33v815h-88 q-23 0 -33 10t-10 33z" />
<glyph unicode="g" horiz-adv-x="1060" d="M76 612q0 256 95.5 380t270.5 124q92 0 164.5 -41.5t104.5 -105.5l6 90q3 39 47 39h143q43 0 43 -45v-897q0 -200 -115.5 -301t-338.5 -101q-205 0 -312 49q-20 8 -28 20t-4 34l22 110q7 34 35 34q9 0 20 -3q125 -41 244 -41q236 0 236 211v88q-31 -67 -100.5 -104 t-162.5 -37q-370 0 -370 497zM330 612q0 -157 45.5 -231t138.5 -74q92 0 141.5 78.5t49.5 230.5q0 151 -49.5 226.5t-141.5 75.5q-93 0 -138.5 -74t-45.5 -232z" />
<glyph unicode="h" horiz-adv-x="1069" d="M113 45v1354q0 43 45 43h164q45 0 45 -43v-424q34 60 104.5 101.5t177.5 41.5q159 0 238.5 -97.5t79.5 -272.5v-703q0 -45 -45 -45h-164q-43 0 -43 45v653q0 96 -35.5 144.5t-118.5 48.5q-96 0 -145 -64.5t-49 -175.5v-606q0 -45 -45 -45h-164q-45 0 -45 45z" />
<glyph unicode="i" horiz-adv-x="481" d="M113 1257v136q0 45 43 45h170q43 0 43 -45v-136q0 -25 -10 -36t-33 -11h-170q-23 0 -33 11t-10 36zM115 45v1008q0 24 10.5 34.5t34.5 10.5h162q24 0 34.5 -10.5t10.5 -34.5v-1008q0 -24 -10.5 -34.5t-34.5 -10.5h-162q-24 0 -34.5 10.5t-10.5 34.5z" />
<glyph unicode="j" horiz-adv-x="514" d="M-25 -53q0 39 36 39h5q36 -4 58 -4q39 0 56 23.5t17 86.5v961q0 45 46 45h163q43 0 43 -45v-996q0 -161 -59.5 -227t-204.5 -66q-73 0 -123 13q-37 9 -37 45v125zM145 1257v136q0 45 43 45h170q45 0 45 -45v-136q0 -47 -45 -47h-170q-23 0 -33 11t-10 36z" />
<glyph unicode="k" horiz-adv-x="964" d="M113 45v1354q0 43 45 43h164q45 0 45 -43v-668l276 336q24 31 66 31h190q26 0 33 -20t-12 -40l-369 -430l387 -553q14 -20 5.5 -37.5t-32.5 -17.5h-192q-43 0 -66 37l-286 428v-420q0 -45 -45 -45h-164q-45 0 -45 45z" />
<glyph unicode="l" horiz-adv-x="481" d="M115 45v1354q0 23 10 33t35 10h162q25 0 35 -10t10 -33v-1354q0 -24 -10.5 -34.5t-34.5 -10.5h-162q-24 0 -34.5 10.5t-10.5 34.5z" />
<glyph unicode="m" horiz-adv-x="1595" d="M109 45v1008q0 45 45 45h149q46 0 49 -39l6 -90q33 61 102 105t169 44q194 0 260 -164q43 74 119.5 119t183.5 45q151 0 225 -95t74 -265v-713q0 -45 -43 -45h-162q-45 0 -45 45v660q0 94 -31 140t-106 46q-84 0 -131 -61t-47 -158v-627q0 -45 -45 -45h-160q-45 0 -45 45 v660q0 94 -30.5 140t-104.5 46q-88 0 -135.5 -63t-47.5 -169v-614q0 -45 -45 -45h-159q-45 0 -45 45z" />
<glyph unicode="n" horiz-adv-x="1058" d="M106 45v1008q0 45 46 45h147q46 0 49 -39l6 -90q23 39 57 70.5t95 55t135 23.5q158 0 236.5 -97t78.5 -273v-703q0 -45 -45 -45h-163q-46 0 -46 45v653q0 97 -34 145t-117 48q-94 0 -143.5 -64t-49.5 -176v-606q0 -45 -45 -45h-161q-46 0 -46 45z" />
<glyph unicode="o" horiz-adv-x="1060" d="M74 549q0 286 116.5 427.5t339.5 141.5t340 -141.5t117 -427.5t-117 -426.5t-340 -140.5t-339.5 140.5t-116.5 426.5zM332 549q0 -189 48 -274t150 -85q101 0 150 85.5t49 273.5q0 189 -48.5 273.5t-150.5 84.5q-103 0 -150.5 -84t-47.5 -274z" />
<glyph unicode="p" horiz-adv-x="1105" d="M109 -180v1233q0 45 45 45h147q46 0 49 -39l4 -94q32 68 111.5 110.5t175.5 42.5q389 0 389 -569q0 -567 -389 -567q-96 0 -172 37.5t-109 105.5v-305q0 -45 -45 -45h-161q-45 0 -45 45zM358 549q0 -356 213 -356q104 0 152.5 82.5t48.5 273.5t-48.5 273.5t-152.5 82.5 q-213 0 -213 -356z" />
<glyph unicode="q" horiz-adv-x="1105" d="M76 549q0 569 389 569q95 0 175 -42.5t112 -110.5l4 94q3 39 47 39h149q45 0 45 -45v-1233q0 -45 -45 -45h-161q-48 0 -48 45v303q-30 -67 -106 -104t-174 -37q-387 0 -387 567zM332 549q0 -190 49 -273t154 -83q213 0 213 356t-213 356q-105 0 -154 -83t-49 -273z" />
<glyph unicode="r" horiz-adv-x="710" d="M109 45v1008q0 45 45 45h151q24 0 34.5 -10.5t12.5 -32.5l6 -133q27 74 97 130t168 56q25 0 35 -9.5t10 -33.5v-191q0 -22 -9.5 -30t-29.5 -8q-8 0 -28 2t-36 2h-2q-91 0 -147 -79q-56 -80 -56 -204v-512q0 -45 -45 -45h-161q-45 0 -45 45z" />
<glyph unicode="s" horiz-adv-x="835" d="M57 74l21 116q5 34 31 34q10 0 22 -5q101 -33 215 -33q91 0 136.5 27.5t45.5 91.5q0 54 -44 88.5t-150 81.5q-116 55 -153 81q-102 71 -118 195q-4 27 -4 58q0 309 373 309q149 0 266 -41q34 -10 34 -38q0 -5 -1 -11l-20 -113q-3 -34 -31 -34q-9 0 -21 4q-90 28 -186 28 q-87 0 -126.5 -25t-39.5 -85q0 -52 44 -84.5t153 -81.5q67 -31 111 -58.5t83.5 -67t58.5 -92.5t19 -122q0 -315 -395 -315q-171 0 -289 43q-21 6 -29.5 17t-5.5 32z" />
<glyph unicode="t" horiz-adv-x="673" d="M25 901v125q0 45 43 45h94v240q0 22 10 31.5t33 9.5h153q45 0 45 -41v-240h175q45 0 45 -45v-123q0 -24 -10.5 -34.5t-34.5 -10.5h-172v-510q0 -85 22 -114t90 -29q13 0 32.5 3t27.5 3q20 0 29.5 -9t10.5 -32l11 -119q3 -35 -35 -47q-50 -16 -139 -16q-163 0 -230 72 t-67 253v545h-90q-23 0 -33 10t-10 33z" />
<glyph unicode="u" horiz-adv-x="1050" d="M100 342v711q0 45 45 45h162q45 0 45 -45v-654q0 -96 33 -145t115 -49q90 0 140 62.5t50 172.5v613q0 45 45 45h162q45 0 45 -45v-1008q0 -45 -45 -45h-149q-47 0 -50 39l-6 90q-82 -147 -274 -147q-318 0 -318 360z" />
<glyph unicode="v" horiz-adv-x="956" d="M37 1047q-3 11 -3 20q0 31 36 31h172q42 0 51 -45l131 -533l51 -239h6l54 239l129 533q9 45 51 45h172q23 0 32 -13.5t3 -37.5l-291 -1006q-12 -41 -58 -41h-192q-43 0 -55 41z" />
<glyph unicode="w" horiz-adv-x="1501" d="M45 1047q-6 23 4 37t33 14h172q42 0 51 -45l113 -539l37 -231h4l45 231l129 543q5 20 15.5 30.5t33.5 10.5h137q23 0 33.5 -10.5t15.5 -30.5l129 -543l43 -231h7l38 231l111 539q9 45 51 45h174q22 0 30.5 -14t2.5 -37l-242 -1002q-12 -45 -57 -45h-176q-45 0 -57 45 l-115 465l-53 254h-6l-54 -254l-112 -465q-12 -45 -60 -45h-176q-45 0 -57 45z" />
<glyph unicode="x" horiz-adv-x="960" d="M37 15.5q-6 15.5 6 35.5l301 506l-293 487q-13 20 -6.5 37t29.5 17h178q40 0 61 -35l168 -313l168 313q15 35 62 35h174q22 0 28 -16t-6 -38l-291 -487l302 -506q11 -19 4 -35t-29 -16h-182q-42 0 -60 35l-172 325l-174 -325q-18 -35 -59 -35h-180q-23 0 -29 15.5z" />
<glyph unicode="y" horiz-adv-x="954" d="M39 1047q-8 23 1 37t32 14h172q41 0 53 -45l143 -539l54 -240h6l47 240l115 539q9 45 51 45h170q23 0 33 -14t4 -37l-258 -963q-24 -91 -48.5 -146.5t-65.5 -98t-100.5 -60t-148.5 -17.5q-118 0 -172 21q-22 6 -31 16t-8 29l14 119q3 22 12.5 30t30.5 7q6 0 38.5 -5.5 t60.5 -5.5q100 0 100 86q0 29 -12 66z" />
<glyph unicode="z" horiz-adv-x="901" d="M76 45v98q0 33 18 58l418 676h-377q-24 0 -34.5 10.5t-10.5 34.5v131q0 24 10.5 34.5t34.5 10.5h635q45 0 45 -45v-99q0 -25 -20 -61l-414 -674h395q45 0 45 -43v-131q0 -45 -45 -45h-655q-45 0 -45 45z" />
<glyph unicode="{" horiz-adv-x="657" d="M49 543v131q0 43 43 43h27q51 0 72.5 73.5t21.5 253.5q0 120 12 194t45 121t85 65t137 18h75q25 0 36 -10t11 -33v-107q0 -25 -11 -36t-36 -11h-28q-57 0 -75 -51.5t-18 -189.5q0 -189 -37 -280.5t-118 -115.5q81 -24 118 -115t37 -278q0 -138 18.5 -191t74.5 -53h28 q47 0 47 -45v-106q0 -45 -47 -45h-75q-85 0 -137 18t-85 65.5t-45 121.5t-12 194q0 179 -21.5 253.5t-72.5 74.5h-27q-43 0 -43 41z" />
<glyph unicode="|" horiz-adv-x="585" d="M176 -180v1618q0 45 45 45h144q43 0 43 -45v-1618q0 -45 -43 -45h-144q-45 0 -45 45z" />
<glyph unicode="}" horiz-adv-x="657" d="M45 -74q0 45 45 45h29q58 0 76 52.5t18 191.5q0 187 37.5 278t118.5 115q-81 24 -118.5 115.5t-37.5 280.5q0 138 -18 189.5t-76 51.5h-29q-45 0 -45 47v107q0 43 45 43h78q112 0 170.5 -35.5t83 -119t24.5 -243.5q0 -180 22 -253.5t73 -73.5h24q45 0 45 -43v-131 q0 -41 -45 -41h-24q-51 0 -73 -75t-22 -255q0 -233 -57 -315t-221 -82h-78q-45 0 -45 45v106z" />
<glyph unicode="~" d="M98 662q11 111 67.5 178t151.5 67q52 0 94.5 -10.5t102.5 -38.5l102 -47q78 -33 115 -33q58 0 88 64q3 5 17 39q5 15 18.5 19t32.5 -5l96 -45q16 -8 22 -19.5t5 -33.5q-11 -110 -67.5 -177t-151.5 -67q-52 0 -94.5 10.5t-102.5 38.5l-100 45q-72 35 -117 35 q-60 0 -88 -64q-5 -7 -17 -38q-5 -15 -18.5 -19.5t-32.5 4.5l-96 45q-30 15 -27 52z" />
<glyph unicode="&#xa1;" horiz-adv-x="544" d="M125 -201l41 817q3 46 47 46h119q42 0 45 -46l41 -817q2 -25 -8.5 -36t-36.5 -11h-201q-50 0 -47 47zM135 858v193q0 47 45 47h185q45 0 45 -47v-193q0 -47 -48 -47h-180q-47 0 -47 47z" />
<glyph unicode="&#xa2;" horiz-adv-x="903" d="M76 549q0 258 101 399t292 166v133q0 45 43 45h78q45 0 45 -45v-135q91 -7 170 -43q23 -11 30 -21.5t1 -31.5l-33 -119q-9 -42 -55 -27q-71 27 -160 27q-129 0 -191.5 -82t-62.5 -266t62.5 -266t193.5 -82q88 0 166 28q45 16 57 -26l31 -117q4 -21 -2.5 -32.5 t-28.5 -22.5q-71 -37 -178 -45v-138q0 -43 -45 -43h-78q-43 0 -43 43v140q-191 24 -292 163.5t-101 397.5z" />
<glyph unicode="&#xa3;" horiz-adv-x="1175" d="M72 688v72q0 20 8.5 28.5t28.5 8.5h108q-23 53 -35 85t-23.5 82t-11.5 95q0 88 27.5 160.5t83 128t147.5 86t213 30.5q216 0 327.5 -96.5t111.5 -271.5q0 -101 -41 -101h-150q-44 0 -41 37q0 9 2 28t2 32q0 68 -50.5 108.5t-149.5 40.5q-112 0 -167.5 -52t-55.5 -145 q0 -36 11 -82.5t21.5 -77t32.5 -87.5h293q39 0 39 -37v-72q0 -37 -39 -37h-246q31 -88 31 -151q0 -85 -40 -157.5t-114 -119.5q59 21 127 21q53 0 130.5 -18.5t123.5 -18.5t73.5 22t37.5 53.5t12 79.5q3 41 49 41h121q49 0 49 -55q0 -85 -12.5 -148.5t-42 -113t-81.5 -75 t-126 -25.5q-86 0 -206.5 29.5t-194.5 29.5q-133 0 -232 -51q-40 -17 -53 4l-92 133q-20 27 8 49q225 160 225 324q0 63 -32 147h-170q-37 0 -37 37z" />
<glyph unicode="&#xa4;" horiz-adv-x="1146" d="M137 190q-26 28 0 54l96 96q-55 89 -55 240q0 150 55 239l-96 99q-25 25 0 53l45 47q25 29 54 0l92 -92q93 86 245 86q154 0 246 -88l92 94q24 24 54 0l47 -47q24 -27 0 -53l-101 -101q58 -99 58 -237q0 -139 -58 -238l101 -98q27 -24 0 -54l-47 -47q-29 -29 -54 0 l-92 95q-92 -88 -246 -88q-157 0 -245 88l-92 -95q-27 -27 -54 0zM371 580q0 -125 53 -189.5t149 -64.5q94 0 147.5 64.5t53.5 189.5t-53.5 189.5t-147.5 64.5q-96 0 -149 -64.5t-53 -189.5z" />
<glyph unicode="&#xa5;" horiz-adv-x="1155" d="M39 1424q9 18 37 18h182q27 0 40 -10.5t21 -32.5l256 -615h7l254 615q8 22 21.5 32.5t39.5 10.5h182q28 0 37 -18t-2 -40l-283 -593h170q39 0 39 -37v-68q0 -39 -39 -39h-235l-53 -121v-37h288q21 0 30 -8t9 -28v-68q0 -39 -39 -39h-288v-297q0 -49 -49 -49h-172 q-50 0 -50 49v297h-288q-37 0 -37 39v68q0 36 37 36h288v37l-55 121h-233q-37 0 -37 39v68q0 37 37 37h168l-281 593q-11 22 -2 40z" />
<glyph unicode="&#xa6;" horiz-adv-x="585" d="M176 -180v594q0 45 45 45h144q43 0 43 -45v-594q0 -45 -43 -45h-144q-45 0 -45 45zM176 844v594q0 45 45 45h144q43 0 43 -45v-594q0 -45 -43 -45h-144q-45 0 -45 45z" />
<glyph unicode="&#xa7;" horiz-adv-x="1204" d="M129 651q0 90 49 159t139 95q-66 52 -100.5 106t-34.5 130q0 166 105.5 244.5t333.5 78.5q165 0 311 -41q25 -8 34.5 -20.5t8.5 -36.5l-8 -119q-1 -23 -17.5 -32t-42.5 -1q-116 31 -248 31q-118 0 -167.5 -31t-49.5 -96q0 -15 3.5 -28t13.5 -25t18.5 -22t27 -21t31 -18.5 t38 -18.5t40.5 -17.5t47 -19.5t48 -20q73 -32 120.5 -55.5t98.5 -56.5t79.5 -66.5t47 -79t18.5 -99.5q0 -177 -188 -247q147 -94 147 -236q0 -161 -125.5 -243.5t-365.5 -82.5q-207 0 -320 37q-26 7 -35.5 21t-7.5 39l8 116q3 48 60 35q117 -30 270 -30q126 0 191 32.5 t65 93.5q0 24 -12.5 45.5t-30 36.5t-48.5 32t-55.5 27.5t-64.5 26.5t-63 27q-58 24 -92 39t-78.5 38t-70 41t-53.5 44t-42 52.5t-23.5 61t-9.5 74.5zM369 659q0 -67 86 -118q51 -30 209 -92l32 -13q61 9 99.5 45t40.5 80q0 25 -10 46.5t-33 41.5t-47.5 36.5t-67.5 36 t-78.5 34t-93.5 37.5q-63 -9 -100 -46t-37 -88z" />
<glyph unicode="&#xa8;" horiz-adv-x="632" d="M20 1251v123q0 43 46 43h143q43 0 43 -43v-123q0 -23 -10 -33t-33 -10h-143q-46 0 -46 43zM381 1251v123q0 43 45 43h143q43 0 43 -43v-123q0 -43 -43 -43h-143q-45 0 -45 43z" />
<glyph unicode="&#xa9;" horiz-adv-x="1605" d="M96 721q0 153 45 286.5t130.5 236t222.5 161.5t309 59t309 -59t223 -161.5t131 -236t45 -286.5t-45 -285.5t-131 -235t-223 -161.5t-309 -59t-309 59t-222.5 161.5t-130.5 235t-45 285.5zM244 721q0 -102 20.5 -191t65 -165t109.5 -130.5t158 -85t206 -30.5t206 30.5 t158 85t109.5 130.5t65 165t20.5 191q0 128 -33.5 236t-100 191t-175.5 130t-250 47t-250 -47t-175.5 -130t-100 -191t-33.5 -236zM459 729q3 428 379 428q103 0 192 -39q33 -14 25 -41l-27 -94q-10 -32 -41 -18q-54 20 -123 20q-101 0 -150.5 -60t-49.5 -196 q0 -137 50.5 -198.5t151.5 -61.5q60 0 127 23q15 6 26.5 0t14.5 -21l25 -92q4 -16 -1.5 -24.5t-21.5 -16.5q-34 -15 -90.5 -27t-105.5 -12q-378 0 -381 430z" />
<glyph unicode="&#xaa;" horiz-adv-x="808" d="M45 1245q0 75 25.5 128.5t66 85t106 49.5t129 24.5t152.5 7.5v64q0 65 -33.5 90.5t-113.5 25.5q-86 0 -207 -41q-40 -13 -49 27l-25 94q-4 18 3.5 27t25.5 16q119 51 272 51q169 0 249.5 -68t80.5 -206v-576q0 -43 -43 -43h-106q-43 0 -46 39l-4 58q-68 -107 -235 -107 q-115 0 -181.5 66t-66.5 188zM246 1262q0 -60 25.5 -88.5t82.5 -28.5q83 0 126.5 47.5t43.5 124.5v90q-144 0 -211 -31t-67 -114z" />
<glyph unicode="&#xab;" horiz-adv-x="892" d="M59 580q0 10 7 22l139 283q17 33 53 33h141q21 0 28.5 -13.5t-1.5 -32.5l-147 -292l147 -291q9 -20 2 -32.5t-29 -12.5h-141q-22 0 -33 7t-20 25l-139 283q-7 9 -7 21zM436 580q0 7 6 22l140 283q16 33 53 33h141q22 0 29 -13t-4 -33l-144 -292l144 -291q11 -20 4 -32.5 t-29 -12.5h-141q-22 0 -33 7t-20 25l-140 283q-6 12 -6 21z" />
<glyph unicode="&#xac;" horiz-adv-x="1126" d="M102 657v127q0 43 45 43h795q45 0 45 -43v-481q0 -47 -45 -47h-154q-45 0 -45 45v311h-596q-45 0 -45 45z" />
<glyph unicode="&#xad;" horiz-adv-x="686" d="M72 506v123q0 23 10 33t33 10h456q45 0 45 -43v-123q0 -43 -45 -43h-456q-23 0 -33 10t-10 33z" />
<glyph unicode="&#xae;" horiz-adv-x="870" d="M92 1104q0 153 90 256.5t254 103.5q110 0 189.5 -50.5t116 -130.5t36.5 -179q0 -152 -89.5 -256.5t-252.5 -104.5q-110 0 -190 51.5t-117 131.5t-37 178zM170 1104q0 -129 66 -208t200 -79q133 0 198.5 79t65.5 208q0 130 -65.5 209.5t-198.5 79.5q-134 0 -200 -79.5 t-66 -209.5zM299 928v364q0 19 20 19h130q161 0 161 -140q0 -100 -82 -124l74 -117q4 -9 0.5 -16t-12.5 -7h-66q-11 0 -22 15l-68 112h-37v-106q0 -21 -18 -21h-60q-20 0 -20 21zM397 1112h41q41 0 56.5 12.5t15.5 46.5q0 32 -15 45t-55 13h-43v-117z" />
<glyph unicode="&#xaf;" horiz-adv-x="632" d="M6 1262v69q0 41 43 41h535q23 0 33 -9.5t10 -31.5v-69q0 -23 -10 -33t-33 -10h-535q-43 0 -43 43z" />
<glyph unicode="&#xb0;" horiz-adv-x="716" d="M68 1169q0 128 80 209.5t210 81.5t210.5 -81t80.5 -208q0 -130 -80.5 -212t-210.5 -82t-210 82t-80 210zM209 1169q0 -72 40 -115.5t109 -43.5q68 0 109 43.5t41 115.5q0 71 -41.5 115.5t-108.5 44.5q-68 0 -108.5 -44.5t-40.5 -115.5z" />
<glyph unicode="&#xb1;" d="M96 45v88q0 43 45 43h826q45 0 45 -43v-88q0 -45 -45 -45h-828q-43 0 -43 45zM96 727v123q0 43 45 43h295v311q0 45 45 45h146q43 0 43 -45v-311h297q45 0 45 -43v-123q0 -43 -45 -43h-297v-322q0 -43 -43 -43h-146q-45 0 -45 43v322h-297q-43 0 -43 43z" />
<glyph unicode="&#xb2;" horiz-adv-x="759" d="M74 1636q0 120 75.5 189t223.5 69q150 0 221.5 -71t71.5 -187q0 -238 -312 -467h285q41 0 41 -41v-86q0 -22 -9.5 -31.5t-31.5 -9.5h-516q-22 0 -31.5 9.5t-9.5 31.5v78q0 23 29 43q53 40 94 73.5t93.5 84t87 96t59 101t24.5 106.5q0 105 -107 105q-104 0 -104 -97 q0 -10 2 -27.5t2 -27.5q0 -35 -41 -35h-102q-33 0 -39 39q-6 21 -6 55z" />
<glyph unicode="&#xb3;" horiz-adv-x="759" d="M68 1075l20 88q4 20 18 26.5t33 -1.5q86 -31 174 -31q76 0 113 27t37 86q0 55 -31 78.5t-94 23.5h-84q-41 0 -41 41v76q0 41 41 41h82q117 0 117 102q0 97 -148 97q-49 0 -158 -31q-40 -13 -49 22l-20 90q-6 28 24 41q92 43 236 43q309 0 309 -231q0 -74 -32.5 -122.5 t-82.5 -67.5q130 -52 130 -211q0 -137 -84 -205t-238 -68q-73 0 -141 14t-103 29q-21 10 -26.5 17.5t-1.5 25.5z" />
<glyph unicode="&#xb4;" horiz-adv-x="632" d="M160 1219q-7 11 0 26l78 168q16 33 51 33h198q21 0 26 -17t-9 -32l-160 -164q-22 -25 -59 -25h-99q-19 0 -26 11z" />
<glyph unicode="&#xb5;" horiz-adv-x="1054" d="M109 -180v1233q0 45 45 45h161q45 0 45 -45v-613q0 -109 51 -172t140 -63q83 0 115 47.5t32 144.5v656q0 45 45 45h162q45 0 45 -45v-715q0 -358 -313 -358q-108 0 -176 43t-103 106l2 -311q0 -23 -11 -33t-36 -10h-159q-45 0 -45 45z" />
<glyph unicode="&#xb6;" horiz-adv-x="1032" d="M84 999q0 218 122 330.5t337 112.5h411q23 0 33 -9.5t10 -31.5v-66q0 -22 -10 -31.5t-33 -9.5h-67q-60 0 -83.5 -24t-23.5 -88v-1170q0 -129 -50.5 -188.5t-166.5 -59.5q-77 0 -127 21q-26 9 -26 39v65q0 31 34 31q8 -1 34 -4.5t42 -3.5q45 0 65.5 28t20.5 93v524h-59 q-212 0 -337.5 113.5t-125.5 328.5z" />
<glyph unicode="&#xb7;" horiz-adv-x="454" d="M96 463v186q0 45 47 45h168q47 0 47 -45v-186q0 -47 -45 -47h-172q-45 0 -45 47z" />
<glyph unicode="&#xb8;" horiz-adv-x="632" d="M217 -213q0 23 25 23h61q76 0 76 55q0 85 -158 155h92q90 -22 153.5 -74t63.5 -122q0 -146 -196 -146q-58 0 -92 11q-25 8 -25 32v66z" />
<glyph unicode="&#xb9;" horiz-adv-x="759" d="M113 1638q-21 30 6 54l215 174q19 16 53 16h109q43 0 43 -43v-795q0 -43 -43 -43h-111q-43 0 -43 43v613l-121 -90q-32 -22 -57 6z" />
<glyph unicode="&#xba;" horiz-adv-x="847" d="M55 1442q0 454 369 454t369 -454q0 -451 -369 -451t-369 451zM268 1442q0 -144 38.5 -209.5t117.5 -65.5t117.5 65.5t38.5 209.5q0 145 -38.5 210.5t-117.5 65.5t-117.5 -65.5t-38.5 -210.5z" />
<glyph unicode="&#xbb;" horiz-adv-x="892" d="M89.5 256.5q-7.5 12.5 2.5 32.5l146 291l-146 292q-10 20 -2.5 33t29.5 13h139q21 0 31.5 -8t19.5 -25l142 -283q6 -15 6 -22q0 -9 -6 -21l-142 -283q-8 -18 -18.5 -25t-32.5 -7h-139q-22 0 -29.5 12.5zM466 256.5q-7 12.5 3 32.5l145 291l-145 292q-10 20 -3 33t28 13 h141q37 0 53 -33l139 -283q7 -12 7 -22q0 -7 -7 -21l-139 -283q-9 -18 -20 -25t-33 -7h-141q-21 0 -28 12.5z" />
<glyph unicode="&#xbc;" horiz-adv-x="1777" d="M113 1198q-21 30 6 53l215 174q20 17 53 17h109q43 0 43 -43v-795q0 -43 -43 -43h-111q-43 0 -43 43v613l-121 -91q-31 -22 -57 7zM459 45l721 1360q18 37 57 37h119q46 0 24 -43l-721 -1362q-10 -20 -21.5 -28.5t-35.5 -8.5h-119q-46 0 -24 45zM1057 221v84q0 27 14 45 l361 504q8 10 12 14.5t13 8.5t22 4h114q43 0 43 -43v-492h64q43 0 43 -41v-82q0 -41 -43 -41h-64v-139q0 -43 -43 -43h-110q-41 0 -41 43v139h-346q-39 0 -39 39zM1233 346h209v303z" />
<glyph unicode="&#xbd;" horiz-adv-x="1777" d="M113 1198q-21 30 6 53l215 174q20 17 53 17h109q43 0 43 -43v-795q0 -43 -43 -43h-111q-43 0 -43 43v613l-121 -91q-31 -22 -57 7zM385.5 11.5q-6.5 11.5 3.5 33.5l721 1360q18 37 57 37h119q22 0 28.5 -11.5t-3.5 -31.5l-721 -1362q-10 -20 -22 -28.5t-36 -8.5h-118 q-22 0 -28.5 11.5zM1096 635q0 -34 6 -55q6 -39 39 -39h102q41 0 41 34q0 10 -2 28t-2 28q0 96 104 96q107 0 107 -104q0 -51 -24.5 -106.5t-59 -101t-87 -96t-93.5 -84t-94 -73.5q-29 -20 -29 -43v-78q0 -22 9.5 -31.5t31.5 -9.5h516q22 0 31.5 9.5t9.5 31.5v86 q0 41 -41 41h-285q312 229 312 467q0 116 -71.5 187t-221.5 71q-148 0 -223.5 -69t-75.5 -189z" />
<glyph unicode="&#xbe;" horiz-adv-x="1777" d="M68 635l20 88q4 20 18 26.5t33 -1.5q86 -31 174 -31q76 0 113 26.5t37 85.5q0 55 -31.5 79t-93.5 24h-84q-41 0 -41 41v76q0 41 41 41h82q117 0 117 102q0 52 -38.5 74t-109.5 22q-49 0 -158 -31q-40 -13 -49 23l-20 90q-6 28 24 41q92 43 236 43q309 0 309 -231 q0 -74 -32.5 -123t-82.5 -68q130 -52 130 -211q0 -137 -84 -204.5t-238 -67.5q-73 0 -141 14t-103 29q-21 10 -26.5 17.5t-1.5 25.5zM479.5 11.5q-6.5 11.5 3.5 33.5l721 1360q18 37 58 37h118q22 0 28.5 -11.5t-3.5 -31.5l-721 -1362q-10 -20 -21.5 -28.5t-35.5 -8.5h-119 q-22 0 -28.5 11.5zM1057 221v84q0 27 14 45l361 504q8 10 12 14.5t13 8.5t22 4h114q43 0 43 -43v-492h64q43 0 43 -41v-82q0 -41 -43 -41h-64v-139q0 -43 -43 -43h-110q-41 0 -41 43v139h-346q-39 0 -39 39zM1233 346h209v303z" />
<glyph unicode="&#xbf;" horiz-adv-x="860" d="M72 53q0 -161 98 -239t297 -78q186 0 324 59q23 9 29.5 19.5t2.5 31.5l-30 136q-9 40 -56 26q-2 -1 -17.5 -6t-20 -6.5l-19.5 -6.5t-22.5 -6.5t-22.5 -5t-26 -5t-26 -4t-30 -3t-31 -0.5q-101 0 -142.5 32t-41.5 107q0 51 24.5 101.5t59 93.5t69.5 87t59.5 99.5 t24.5 114.5v16q0 48 -47 48h-149q-47 0 -47 -48v-16q0 -51 -27 -100.5t-65 -93.5t-76 -92t-65 -116t-27 -145zM319 858v193q0 47 46 47h182q45 0 45 -47v-193q0 -47 -45 -47h-180q-48 0 -48 47z" />
<glyph unicode="&#xc0;" horiz-adv-x="1193" d="M41 53l375 1342q6 25 20 36t43 11h236q30 0 43.5 -11t19.5 -36l375 -1342q6 -24 -4.5 -38.5t-34.5 -14.5h-180q-24 0 -36.5 10.5t-18.5 34.5l-74 272h-416l-72 -272q-6 -24 -18.5 -34.5t-36.5 -10.5h-182q-23 0 -34 15t-5 38zM321 1756q5 18 27 18h199q36 0 51 -33 l78 -168q6 -16 -1 -27.5t-26 -11.5h-98q-38 0 -62 27l-159 163q-14 14 -9 32zM438 551h316l-154 623h-4z" />
<glyph unicode="&#xc1;" horiz-adv-x="1193" d="M41 53l375 1342q6 25 20 36t43 11h236q30 0 43.5 -11t19.5 -36l375 -1342q6 -24 -4.5 -38.5t-34.5 -14.5h-180q-24 0 -36.5 10.5t-18.5 34.5l-74 272h-416l-72 -272q-6 -24 -18.5 -34.5t-36.5 -10.5h-182q-23 0 -34 15t-5 38zM438 551h316l-154 623h-4zM518 1573l78 168 q15 33 51 33h199q21 0 25.5 -17.5t-9.5 -32.5l-160 -163q-24 -27 -59 -27h-100q-18 0 -24.5 11.5t-0.5 27.5z" />
<glyph unicode="&#xc2;" horiz-adv-x="1193" d="M41 53l375 1342q6 25 20 36t43 11h236q30 0 43.5 -11t19.5 -36l375 -1342q6 -24 -4.5 -38.5t-34.5 -14.5h-180q-24 0 -36.5 10.5t-18.5 34.5l-74 272h-416l-72 -272q-6 -24 -18.5 -34.5t-36.5 -10.5h-182q-23 0 -34 15t-5 38zM308 1550q-5 16 9 29l166 178q22 25 60 25 h108q35 0 60 -25l166 -178q14 -15 9 -30t-26 -15h-98q-26 0 -55 29l-109 94l-109 -94q-1 -1 -5.5 -5t-6 -5t-5.5 -4.5t-5.5 -4.5t-5.5 -3t-6.5 -3t-6.5 -2t-8 -1.5t-8 -0.5h-98q-21 0 -26 16zM438 551h316l-154 623h-4z" />
<glyph unicode="&#xc3;" horiz-adv-x="1193" d="M41 53l375 1342q6 25 20 36t43 11h236q30 0 43.5 -11t19.5 -36l375 -1342q6 -24 -4.5 -38.5t-34.5 -14.5h-180q-24 0 -36.5 10.5t-18.5 34.5l-74 272h-416l-72 -272q-6 -24 -18.5 -34.5t-36.5 -10.5h-182q-23 0 -34 15t-5 38zM279 1589q0 75 35 117.5t110 42.5 q55 0 158 -35l63 -26q121 -54 127 12l2 16q6 29 43 29h57q44 0 44 -59q0 -158 -146 -158q-77 0 -158 35l-61 26q-47 17 -80 17q-48 0 -51 -31l-2 -12q-6 -29 -41 -29h-60q-22 0 -31 11.5t-9 43.5zM438 551h316l-154 623h-4z" />
<glyph unicode="&#xc4;" horiz-adv-x="1193" d="M41 53l375 1342q6 25 20 36t43 11h236q30 0 43.5 -11t19.5 -36l375 -1342q6 -24 -4.5 -38.5t-34.5 -14.5h-180q-24 0 -36.5 10.5t-18.5 34.5l-74 272h-416l-72 -272q-6 -24 -18.5 -34.5t-36.5 -10.5h-182q-23 0 -34 15t-5 38zM295 1579v119q0 45 43 45h149q43 0 43 -45 v-119q0 -45 -43 -45h-149q-43 0 -43 45zM438 551h316l-154 623h-4zM664 1579v119q0 45 45 45h147q43 0 43 -45v-119q0 -45 -43 -45h-147q-45 0 -45 45z" />
<glyph unicode="&#xc5;" horiz-adv-x="1193" d="M41 53l375 1342l6 18q-37 49 -37 123q0 88 58.5 142.5t154.5 54.5t154.5 -54.5t58.5 -142.5q0 -72 -39 -123l6 -18l375 -1342q6 -24 -4.5 -38.5t-34.5 -14.5h-180q-24 0 -36.5 10.5t-18.5 34.5l-74 272h-416l-72 -272q-6 -24 -18.5 -34.5t-36.5 -10.5h-182q-23 0 -34 15 t-5 38zM438 551h316l-154 623h-4zM502 1536q0 -43 25.5 -67.5t70.5 -24.5q44 0 70 24.5t26 67.5q0 42 -26 67t-70 25q-45 0 -70.5 -25t-25.5 -67z" />
<glyph unicode="&#xc6;" horiz-adv-x="1556" d="M20 53l478 1342q8 25 21.5 36t43.5 11h858q25 0 36 -11t11 -36v-144q0 -49 -47 -49h-426v-352h406q45 0 45 -49v-131q0 -49 -45 -49h-406v-381h435q47 0 47 -47v-144q0 -49 -47 -49h-652q-49 0 -49 49v266h-338l-90 -270q-8 -24 -20.5 -34.5t-36.5 -10.5h-187 q-25 0 -35 15t-2 38zM463 545h266v659h-51z" />
<glyph unicode="&#xc7;" horiz-adv-x="1054" d="M86 723q0 394 138.5 567.5t424.5 173.5q86 0 164.5 -16.5t124.5 -40.5q25 -11 34 -24t3 -35l-33 -127q-12 -47 -63 -31q-85 33 -185 33q-181 0 -258.5 -112t-77.5 -388q0 -278 78.5 -390t265.5 -112q94 0 189 37q28 8 41.5 0.5t19.5 -33.5l37 -127q6 -22 -4 -35t-35 -24 q-113 -53 -274 -59q112 -66 112 -166q0 -75 -52 -114.5t-152 -39.5q-65 0 -97 12q-24 9 -24 33v68q0 24 26 24h64q80 0 80 60q0 70 -98 133q-226 31 -337.5 206t-111.5 527z" />
<glyph unicode="&#xc8;" horiz-adv-x="989" d="M121 49v1346q0 47 49 47h686q47 0 47 -47v-142q0 -49 -47 -49h-469v-354h447q47 0 47 -49v-131q0 -49 -47 -49h-447v-383h475q49 0 49 -48v-141q0 -49 -49 -49h-692q-49 0 -49 49zM290 1756q5 18 27 18h199q36 0 51 -33l78 -168q6 -16 -1 -27.5t-26 -11.5h-98 q-37 0 -61 27l-160 163q-14 14 -9 32z" />
<glyph unicode="&#xc9;" horiz-adv-x="989" d="M121 49v1346q0 47 49 47h686q47 0 47 -47v-142q0 -49 -47 -49h-469v-354h447q47 0 47 -49v-131q0 -49 -47 -49h-447v-383h475q49 0 49 -48v-141q0 -49 -49 -49h-692q-49 0 -49 49zM413.5 1546q-6.5 12 0.5 27l78 168q15 33 51 33h198q21 0 26 -17.5t-9 -32.5l-160 -163 q-24 -27 -59 -27h-101q-18 0 -24.5 12z" />
<glyph unicode="&#xca;" horiz-adv-x="989" d="M121 49v1346q0 47 49 47h686q47 0 47 -47v-142q0 -49 -47 -49h-469v-354h447q47 0 47 -49v-131q0 -49 -47 -49h-447v-383h475q49 0 49 -48v-141q0 -49 -49 -49h-692q-49 0 -49 49zM234.5 1550q-4.5 16 9.5 29l166 178q22 25 59 25h109q34 0 59 -25l166 -178q14 -15 9 -30 t-26 -15h-98q-26 0 -55 29l-109 94l-108 -94q-10 -9 -13.5 -11.5t-11.5 -8t-15.5 -7.5t-17.5 -2h-98q-21 0 -25.5 16z" />
<glyph unicode="&#xcb;" horiz-adv-x="989" d="M121 49v1346q0 47 49 47h686q47 0 47 -47v-142q0 -49 -47 -49h-469v-354h447q47 0 47 -49v-131q0 -49 -47 -49h-447v-383h475q49 0 49 -48v-141q0 -49 -49 -49h-692q-49 0 -49 49zM219 1579v119q0 45 43 45h150q43 0 43 -45v-119q0 -45 -43 -45h-150q-43 0 -43 45z M588 1579v119q0 45 45 45h147q43 0 43 -45v-119q0 -45 -43 -45h-147q-45 0 -45 45z" />
<glyph unicode="&#xcc;" horiz-adv-x="534" d="M-0.5 1756q5.5 18 27.5 18h198q36 0 51 -33l78 -168q7 -15 0 -27t-26 -12h-99q-37 0 -61 27l-160 163q-14 14 -8.5 32zM133 49v1346q0 25 11 36t36 11h174q47 0 47 -47v-1346q0 -49 -47 -49h-174q-25 0 -36 11.5t-11 37.5z" />
<glyph unicode="&#xcd;" horiz-adv-x="534" d="M133 49v1346q0 25 11 36t36 11h174q47 0 47 -47v-1346q0 -49 -47 -49h-174q-25 0 -36 11.5t-11 37.5zM184 1573l78 168q15 33 51 33h199q21 0 25.5 -17.5t-9.5 -32.5l-159 -163q-24 -27 -60 -27h-100q-18 0 -24.5 11.5t-0.5 27.5z" />
<glyph unicode="&#xce;" horiz-adv-x="534" d="M-23.5 1550q-4.5 16 9.5 29l166 178q22 25 59 25h108q35 0 60 -25l166 -178q14 -15 9 -30t-26 -15h-98q-26 0 -55 29l-109 94l-108 -94q-10 -9 -13.5 -11.5t-11.5 -8t-15.5 -7.5t-17.5 -2h-98q-21 0 -25.5 16zM133 49v1346q0 25 11 36t36 11h174q47 0 47 -47v-1346 q0 -49 -47 -49h-174q-25 0 -36 11.5t-11 37.5z" />
<glyph unicode="&#xcf;" horiz-adv-x="534" d="M-37 1579v119q0 45 43 45h150q43 0 43 -45v-119q0 -45 -43 -45h-150q-43 0 -43 45zM133 49v1346q0 25 11 36t36 11h174q47 0 47 -47v-1346q0 -49 -47 -49h-174q-25 0 -36 11.5t-11 37.5zM332 1579v119q0 45 45 45h147q43 0 43 -45v-119q0 -45 -43 -45h-147q-45 0 -45 45z " />
<glyph unicode="&#xd0;" horiz-adv-x="1202" d="M20 682v80q0 39 39 39h66v594q0 47 49 47h342q153 0 262.5 -36.5t188.5 -120t117 -223t38 -341.5q0 -161 -25 -282.5t-72.5 -205t-121.5 -135.5t-167.5 -75t-215.5 -23h-346q-49 0 -49 49v596h-66q-39 0 -39 37zM395 242h119q87 0 146 21.5t103 75t64.5 147.5t20.5 235 q0 114 -14.5 197.5t-40.5 137.5t-69 86t-94 45t-120 13h-115v-399h187q39 0 39 -39v-80q0 -37 -39 -37h-187v-403z" />
<glyph unicode="&#xd1;" horiz-adv-x="1234" d="M121 49v1346q0 47 49 47h164q25 0 38.5 -7.5t22.5 -27.5l457 -909v897q0 47 47 47h166q49 0 49 -45v-1348q0 -49 -49 -49h-164q-26 0 -39 8t-22 29l-457 907v-895q0 -49 -47 -49h-166q-49 0 -49 49zM299 1589q0 75 35 117.5t110 42.5q55 0 158 -35l64 -26q121 -54 127 12 l2 16q6 29 43 29h57q43 0 43 -59q0 -158 -145 -158q-77 0 -158 35l-62 26q-47 17 -79 17q-49 0 -52 -31l-2 -12q-6 -29 -41 -29h-59q-22 0 -31.5 12t-9.5 43z" />
<glyph unicode="&#xd2;" horiz-adv-x="1245" d="M84 721q0 200 35.5 343t105.5 231t168 128.5t230 40.5t229.5 -40.5t168 -128.5t105.5 -231t35 -343t-35 -343t-105.5 -230t-168 -127.5t-229.5 -40.5t-230 40.5t-168 127.5t-105.5 230t-35.5 343zM358 721q0 -274 63.5 -389t201.5 -115t201 115t63 389t-63 390t-201 116 t-201.5 -116t-63.5 -390zM358 1756q5 18 27 18h199q36 0 51 -33l78 -168q6 -16 -1 -27.5t-26 -11.5h-98q-38 0 -62 27l-159 163q-14 14 -9 32z" />
<glyph unicode="&#xd3;" horiz-adv-x="1245" d="M84 721q0 200 35.5 343t105.5 231t168 128.5t230 40.5t229.5 -40.5t168 -128.5t105.5 -231t35 -343t-35 -343t-105.5 -230t-168 -127.5t-229.5 -40.5t-230 40.5t-168 127.5t-105.5 230t-35.5 343zM358 721q0 -274 63.5 -389t201.5 -115t201 115t63 389t-63 390t-201 116 t-201.5 -116t-63.5 -390zM538.5 1546q-6.5 12 0.5 27l77 168q15 33 52 33h198q21 0 26 -17.5t-9 -32.5l-160 -163q-24 -27 -59 -27h-101q-18 0 -24.5 12z" />
<glyph unicode="&#xd4;" horiz-adv-x="1245" d="M84 721q0 200 35.5 343t105.5 231t168 128.5t230 40.5t229.5 -40.5t168 -128.5t105.5 -231t35 -343t-35 -343t-105.5 -230t-168 -127.5t-229.5 -40.5t-230 40.5t-168 127.5t-105.5 230t-35.5 343zM332.5 1550q-4.5 16 9.5 29l166 178q22 25 59 25h109q34 0 59 -25 l166 -178q14 -15 9.5 -30t-25.5 -15h-99q-26 0 -55 29l-108 94l-109 -94q-1 -1 -5.5 -5t-6 -5t-5.5 -4.5t-5.5 -4.5t-5.5 -3t-6.5 -3t-6.5 -2t-8 -1.5t-8 -0.5h-99q-21 0 -25.5 16zM358 721q0 -274 63.5 -389t201.5 -115t201 115t63 389t-63 390t-201 116t-201.5 -116 t-63.5 -390z" />
<glyph unicode="&#xd5;" horiz-adv-x="1245" d="M84 721q0 200 35.5 343t105.5 231t168 128.5t230 40.5t229.5 -40.5t168 -128.5t105.5 -231t35 -343t-35 -343t-105.5 -230t-168 -127.5t-229.5 -40.5t-230 40.5t-168 127.5t-105.5 230t-35.5 343zM303 1589q0 74 35.5 117t110.5 43q54 0 157 -35l64 -26q121 -54 127 12 l2 16q6 29 43 29h57q43 0 43 -59q0 -158 -145 -158q-77 0 -158 35l-61 26q-47 17 -80 17q-49 0 -52 -31l-2 -12q-6 -29 -41 -29h-59q-22 0 -31.5 12t-9.5 43zM358 721q0 -274 63.5 -389t201.5 -115t201 115t63 389t-63 390t-201 116t-201.5 -116t-63.5 -390z" />
<glyph unicode="&#xd6;" horiz-adv-x="1245" d="M84 721q0 200 35.5 343t105.5 231t168 128.5t230 40.5t229.5 -40.5t168 -128.5t105.5 -231t35 -343t-35 -343t-105.5 -230t-168 -127.5t-229.5 -40.5t-230 40.5t-168 127.5t-105.5 230t-35.5 343zM319 1579v119q0 45 43 45h150q43 0 43 -45v-119q0 -45 -43 -45h-150 q-43 0 -43 45zM358 721q0 -274 63.5 -389t201.5 -115t201 115t63 389t-63 390t-201 116t-201.5 -116t-63.5 -390zM688 1579v119q0 45 45 45h148q43 0 43 -45v-119q0 -45 -43 -45h-148q-45 0 -45 45z" />
<glyph unicode="&#xd7;" d="M125 438l272 275l-272 270q-32 29 0 61l94 95q34 30 64 0l270 -273l272 273q33 29 62 0l94 -95q32 -27 -2 -61l-270 -270l270 -275q17 -17 17 -30.5t-17 -30.5l-92 -94q-30 -30 -62 2l-272 270l-270 -272q-32 -32 -64 0l-92 94q-29 34 -2 61z" />
<glyph unicode="&#xd8;" horiz-adv-x="1253" d="M86 106l88 127q-88 174 -88 488q0 392 136.5 567.5t404.5 175.5q215 0 344 -123l61 86q26 36 60 13l61 -45q37 -25 10 -62l-88 -127q92 -182 92 -485q0 -200 -35.5 -343t-106 -230t-168.5 -127.5t-230 -40.5q-227 0 -346 122l-66 -92q-23 -34 -59 -8l-62 47q-32 22 -8 57 zM360 723q0 -145 19 -217l432 616q-61 105 -184 105q-92 0 -149.5 -48.5t-87.5 -160t-30 -295.5zM440 317q37 -55 79 -77.5t108 -22.5q138 0 202 115.5t64 386.5q0 133 -19 219z" />
<glyph unicode="&#xd9;" horiz-adv-x="1198" d="M115 469v926q0 47 47 47h172q26 0 37.5 -11t11.5 -36v-897q0 -142 50.5 -208.5t166.5 -66.5t165.5 66t49.5 207v899q0 47 47 47h174q25 0 36 -11t11 -36v-926q0 -249 -118.5 -369t-364.5 -120q-247 0 -366 120t-119 369zM345.5 1756q5.5 18 27.5 18h198q37 0 52 -33 l77 -168q7 -15 0 -27t-26 -12h-99q-37 0 -61 27l-160 163q-14 14 -8.5 32z" />
<glyph unicode="&#xda;" horiz-adv-x="1198" d="M115 469v926q0 47 47 47h172q26 0 37.5 -11t11.5 -36v-897q0 -142 50.5 -208.5t166.5 -66.5t165.5 66t49.5 207v899q0 47 47 47h174q25 0 36 -11t11 -36v-926q0 -249 -118.5 -369t-364.5 -120q-247 0 -366 120t-119 369zM499.5 1546q-6.5 12 0.5 27l78 168q15 33 51 33 h198q21 0 26 -17.5t-9 -32.5l-160 -163q-24 -27 -59 -27h-101q-18 0 -24.5 12z" />
<glyph unicode="&#xdb;" horiz-adv-x="1198" d="M115 469v926q0 47 47 47h172q26 0 37.5 -11t11.5 -36v-897q0 -142 50.5 -208.5t166.5 -66.5t165.5 66t49.5 207v899q0 47 47 47h174q25 0 36 -11t11 -36v-926q0 -249 -118.5 -369t-364.5 -120q-247 0 -366 120t-119 369zM310 1550q-5 16 9 29l166 178q22 25 60 25h108 q35 0 60 -25l166 -178q14 -15 9 -30t-26 -15h-98q-26 0 -55 29l-109 94l-108 -94q-10 -9 -13.5 -11.5t-11.5 -8t-15.5 -7.5t-17.5 -2h-98q-21 0 -26 16z" />
<glyph unicode="&#xdc;" horiz-adv-x="1198" d="M115 469v926q0 47 47 47h172q26 0 37.5 -11t11.5 -36v-897q0 -142 50.5 -208.5t166.5 -66.5t165.5 66t49.5 207v899q0 47 47 47h174q25 0 36 -11t11 -36v-926q0 -249 -118.5 -369t-364.5 -120q-247 0 -366 120t-119 369zM297 1579v119q0 45 43 45h149q43 0 43 -45v-119 q0 -45 -43 -45h-149q-43 0 -43 45zM666 1579v119q0 45 45 45h147q43 0 43 -45v-119q0 -45 -43 -45h-147q-45 0 -45 45z" />
<glyph unicode="&#xdd;" horiz-adv-x="1155" d="M43 1423q9 19 37 19h184q46 0 62 -43l178 -424l71 -205h3l73 205l178 424q16 43 62 43h184q28 0 37 -19t-2 -39l-397 -845v-490q0 -49 -49 -49h-175q-47 0 -47 49v490l-397 845q-11 20 -2 39zM489 1573l78 168q15 33 51 33h199q21 0 26 -17.5t-9 -32.5l-160 -163 q-24 -27 -60 -27h-100q-18 0 -24.5 11.5t-0.5 27.5z" />
<glyph unicode="&#xde;" horiz-adv-x="1128" d="M121 49v1346q0 47 49 47h172q47 0 47 -47v-121h133q137 0 232.5 -25t161.5 -83t97 -153.5t31 -234.5q0 -272 -124 -384.5t-398 -112.5h-133v-232q0 -49 -47 -49h-172q-49 0 -49 49zM389 516h133q139 0 195.5 57t56.5 207q0 146 -57 202t-195 56h-133v-522z" />
<glyph unicode="&#xdf;" horiz-adv-x="1138" d="M115 43v1042q0 192 117 283.5t329 91.5q196 0 302 -83.5t106 -223.5q0 -60 -21 -109.5t-51 -80.5t-60.5 -56t-51.5 -47.5t-21 -42.5q0 -26 32 -55.5t77 -64t90.5 -79.5t77.5 -121t32 -171q0 -172 -92 -254t-279 -82q-108 0 -153 10q-45 11 -45 47v123q0 43 45 43 q14 0 39 -2t37 -2q200 0 200 162q0 59 -31.5 110t-76.5 87.5t-89.5 71t-76 76.5t-31.5 89q0 33 21 64t51 56.5t60.5 52.5t51.5 62.5t21 75.5q0 59 -43.5 98t-132.5 39q-91 0 -142 -46.5t-51 -141.5v-1022q0 -23 -10 -33t-33 -10h-153q-25 0 -35 10t-10 33z" />
<glyph unicode="&#xe0;" horiz-adv-x="997" d="M59 305q0 74 19 132t57 97.5t87.5 66.5t119.5 42.5t142.5 23t166.5 9.5v67q0 87 -43.5 125.5t-142.5 38.5q-118 0 -258 -51q-44 -13 -53 31l-23 119q-8 37 31 53q57 25 151.5 41t184.5 16q208 0 302.5 -86.5t94.5 -267.5v-717q0 -45 -45 -45h-135q-44 0 -47 39l-6 94 q-86 -147 -300 -147q-141 0 -222 82.5t-81 236.5zM259.5 1429q5.5 17 27.5 17h196q39 0 52 -33l79 -168q7 -15 0 -26t-26 -11h-101q-34 0 -59 25l-160 164q-14 15 -8.5 32zM301 319q0 -70 34.5 -109.5t104.5 -39.5q103 0 157 64t54 165v117q-71 -3 -119 -8t-95.5 -17.5 t-74.5 -33.5t-44 -55.5t-17 -82.5z" />
<glyph unicode="&#xe1;" horiz-adv-x="997" d="M59 305q0 74 19 132t57 97.5t87.5 66.5t119.5 42.5t142.5 23t166.5 9.5v67q0 87 -43.5 125.5t-142.5 38.5q-118 0 -258 -51q-44 -13 -53 31l-23 119q-8 37 31 53q57 25 151.5 41t184.5 16q208 0 302.5 -86.5t94.5 -267.5v-717q0 -45 -45 -45h-135q-44 0 -47 39l-6 94 q-86 -147 -300 -147q-141 0 -222 82.5t-81 236.5zM301 319q0 -70 34.5 -109.5t104.5 -39.5q103 0 157 64t54 165v117q-71 -3 -119 -8t-95.5 -17.5t-74.5 -33.5t-44 -55.5t-17 -82.5zM385 1245l78 168q17 33 51 33h199q21 0 25.5 -17t-9.5 -32l-160 -164q-22 -25 -59 -25h-98 q-19 0 -26 10.5t-1 26.5z" />
<glyph unicode="&#xe2;" horiz-adv-x="997" d="M59 305q0 74 19 132t57 97.5t87.5 66.5t119.5 42.5t142.5 23t166.5 9.5v67q0 87 -43.5 125.5t-142.5 38.5q-118 0 -258 -51q-44 -13 -53 31l-23 119q-8 37 31 53q57 25 151.5 41t184.5 16q208 0 302.5 -86.5t94.5 -267.5v-717q0 -45 -45 -45h-135q-44 0 -47 39l-6 94 q-86 -147 -300 -147q-141 0 -222 82.5t-81 236.5zM209 1223q-6 15 8 28l168 183q23 26 59 26h109q33 0 59 -26l168 -183q14 -13 9 -28t-25 -15h-98q-31 0 -56 25l-110 102l-113 -102q-25 -25 -55 -25h-96q-21 0 -27 15zM301 319q0 -70 34.5 -109.5t104.5 -39.5q103 0 157 64 t54 165v117q-71 -3 -119 -8t-95.5 -17.5t-74.5 -33.5t-44 -55.5t-17 -82.5z" />
<glyph unicode="&#xe3;" horiz-adv-x="997" d="M59 305q0 74 19 132t57 97.5t87.5 66.5t119.5 42.5t142.5 23t166.5 9.5v67q0 87 -43.5 125.5t-142.5 38.5q-118 0 -258 -51q-44 -13 -53 31l-23 119q-8 37 31 53q57 25 151.5 41t184.5 16q208 0 302.5 -86.5t94.5 -267.5v-717q0 -45 -45 -45h-135q-44 0 -47 39l-6 94 q-86 -147 -300 -147q-141 0 -222 82.5t-81 236.5zM188 1264q0 155 136 155q68 0 157 -35l62 -26q52 -19 75 -19q43 0 46 37l2 10q3 31 39 31h61q41 0 41 -59q0 -154 -135 -154q-74 0 -160 35l-59 27q-47 18 -74 18q-40 0 -47 -35l-2 -12q-6 -29 -41 -29h-60q-22 0 -31.5 12 t-9.5 44zM301 319q0 -70 34.5 -109.5t104.5 -39.5q103 0 157 64t54 165v117q-71 -3 -119 -8t-95.5 -17.5t-74.5 -33.5t-44 -55.5t-17 -82.5z" />
<glyph unicode="&#xe4;" horiz-adv-x="997" d="M59 305q0 74 19 132t57 97.5t87.5 66.5t119.5 42.5t142.5 23t166.5 9.5v67q0 87 -43.5 125.5t-142.5 38.5q-118 0 -258 -51q-44 -13 -53 31l-23 119q-8 37 31 53q57 25 151.5 41t184.5 16q208 0 302.5 -86.5t94.5 -267.5v-717q0 -45 -45 -45h-135q-44 0 -47 39l-6 94 q-86 -147 -300 -147q-141 0 -222 82.5t-81 236.5zM199 1251v123q0 43 45 43h143q43 0 43 -43v-123q0 -23 -10 -33t-33 -10h-143q-45 0 -45 43zM301 319q0 -70 34.5 -109.5t104.5 -39.5q103 0 157 64t54 165v117q-71 -3 -119 -8t-95.5 -17.5t-74.5 -33.5t-44 -55.5t-17 -82.5 zM559 1251v123q0 43 45 43h144q43 0 43 -43v-123q0 -43 -43 -43h-144q-45 0 -45 43z" />
<glyph unicode="&#xe5;" horiz-adv-x="997" d="M59 305q0 74 19 132t57 97.5t87.5 66.5t119.5 42.5t142.5 23t166.5 9.5v67q0 87 -43.5 125.5t-142.5 38.5q-118 0 -258 -51q-44 -13 -53 31l-23 119q-8 37 31 53q57 25 151.5 41t184.5 16q208 0 302.5 -86.5t94.5 -267.5v-717q0 -45 -45 -45h-135q-44 0 -47 39l-6 94 q-86 -147 -300 -147q-141 0 -222 82.5t-81 236.5zM289 1393q0 88 58.5 142t156.5 54q97 0 156 -54t59 -142q0 -89 -59 -144t-156 -55q-98 0 -156.5 54.5t-58.5 144.5zM301 319q0 -70 34.5 -109.5t104.5 -39.5q103 0 157 64t54 165v117q-71 -3 -119 -8t-95.5 -17.5 t-74.5 -33.5t-44 -55.5t-17 -82.5zM406 1393q0 -43 26 -68t72 -25q44 0 71 25t27 68q0 41 -26 65.5t-72 24.5t-72 -24.5t-26 -65.5z" />
<glyph unicode="&#xe6;" horiz-adv-x="1566" d="M59 299q0 85 28.5 147t76.5 99.5t126 59.5t161.5 29.5t199.5 8.5v109q0 155 -184 155q-23 0 -44.5 -1.5t-44 -5.5t-38.5 -6.5t-39.5 -9t-33 -9.5t-33.5 -10.5t-29 -8.5q-46 -15 -55 31l-25 119q-8 38 33 53q151 57 327 57q244 0 312 -141q43 69 120.5 106t178.5 37 q198 0 297.5 -128.5t99.5 -364.5v-117q0 -26 -11 -36.5t-38 -10.5h-549q10 -143 77 -212t191 -69q110 0 211 43q22 8 38 0t20 -30l22 -105q7 -36 -33 -55q-43 -21 -123 -37t-155 -16q-143 0 -241 53t-136 143q-53 -94 -145.5 -142t-212.5 -48q-349 0 -349 313zM301 313 q0 -141 150 -141q100 0 150 64.5t50 166.5v78q-89 -1 -148.5 -8t-107.5 -24.5t-71 -51t-23 -84.5zM889 635h368v16q0 135 -40.5 203t-133.5 68q-90 0 -138.5 -69.5t-55.5 -217.5z" />
<glyph unicode="&#xe7;" horiz-adv-x="868" d="M74 551q0 285 117.5 426t338.5 141q74 0 140 -13t102 -32q43 -19 33 -57l-33 -119q-10 -40 -59 -25q-77 25 -144 25q-122 0 -179.5 -81t-57.5 -265q0 -185 57.5 -267.5t175.5 -82.5q76 0 160 30q46 17 55 -24l31 -121q4 -21 -3 -32.5t-30 -22.5q-34 -18 -100 -33 t-129 -16q115 -61 115 -158q0 -146 -197 -146q-58 0 -92 11q-25 8 -25 32v66q0 23 25 23h61q76 0 76 55q0 73 -111 133q-327 76 -327 553z" />
<glyph unicode="&#xe8;" horiz-adv-x="1009" d="M74 549q0 284 114 426.5t330 142.5q210 0 314 -134.5t104 -377.5v-110q0 -26 -11 -36.5t-36 -10.5h-565q21 -269 276 -269q116 0 213 41q46 18 59 -31l23 -100q4 -22 -4.5 -34.5t-30.5 -22.5q-128 -53 -280 -53q-506 0 -506 569zM261.5 1429q5.5 17 27.5 17h196 q39 0 52 -33l79 -168q7 -15 0 -26t-26 -11h-101q-34 0 -59 25l-160 164q-14 15 -8.5 32zM319 621h383v16q0 285 -182 285q-96 0 -145 -71.5t-56 -229.5z" />
<glyph unicode="&#xe9;" horiz-adv-x="1009" d="M74 549q0 284 114 426.5t330 142.5q210 0 314 -134.5t104 -377.5v-110q0 -26 -11 -36.5t-36 -10.5h-565q21 -269 276 -269q116 0 213 41q46 18 59 -31l23 -100q4 -22 -4.5 -34.5t-30.5 -22.5q-128 -53 -280 -53q-506 0 -506 569zM319 621h383v16q0 285 -182 285 q-96 0 -145 -71.5t-56 -229.5zM406 1219q-7 11 0 26l77 168q17 33 52 33h198q21 0 26 -17t-9 -32l-160 -164q-22 -25 -60 -25h-98q-19 0 -26 11z" />
<glyph unicode="&#xea;" horiz-adv-x="1009" d="M74 549q0 284 114 426.5t330 142.5q210 0 314 -134.5t104 -377.5v-110q0 -26 -11 -36.5t-36 -10.5h-565q21 -269 276 -269q116 0 213 41q46 18 59 -31l23 -100q4 -22 -4.5 -34.5t-30.5 -22.5q-128 -53 -280 -53q-506 0 -506 569zM225 1223q-6 15 8 28l168 183 q23 26 60 26h108q34 0 60 -26l168 -183q14 -13 8.5 -28t-25.5 -15h-98q-30 0 -55 25l-111 102l-113 -102q-25 -25 -55 -25h-96q-21 0 -27 15zM319 621h383v16q0 285 -182 285q-96 0 -145 -71.5t-56 -229.5z" />
<glyph unicode="&#xeb;" horiz-adv-x="1009" d="M74 549q0 284 114 426.5t330 142.5q210 0 314 -134.5t104 -377.5v-110q0 -26 -11 -36.5t-36 -10.5h-565q21 -269 276 -269q116 0 213 41q46 18 59 -31l23 -100q4 -22 -4.5 -34.5t-30.5 -22.5q-128 -53 -280 -53q-506 0 -506 569zM219 1251v123q0 43 45 43h144 q43 0 43 -43v-123q0 -23 -10 -33t-33 -10h-144q-45 0 -45 43zM319 621h383v16q0 285 -182 285q-96 0 -145 -71.5t-56 -229.5zM580 1251v123q0 43 45 43h143q43 0 43 -43v-123q0 -43 -43 -43h-143q-45 0 -45 43z" />
<glyph unicode="&#xec;" horiz-adv-x="483" d="M-25 1429q5 17 27 17h197q38 0 51 -33l80 -168q6 -16 -1 -26.5t-26 -10.5h-100q-35 0 -60 25l-159 164q-14 15 -9 32zM115 45v1008q0 45 47 45h162q43 0 43 -45v-1008q0 -45 -43 -45h-162q-47 0 -47 45z" />
<glyph unicode="&#xed;" horiz-adv-x="483" d="M115 45v1008q0 45 47 45h162q43 0 43 -45v-1008q0 -45 -43 -45h-162q-47 0 -47 45zM156 1219q-7 11 0 26l77 168q17 33 52 33h198q21 0 26 -17t-9 -32l-160 -164q-22 -25 -59 -25h-99q-19 0 -26 11z" />
<glyph unicode="&#xee;" horiz-adv-x="483" d="M-47 1223q-6 15 8 28l168 183q23 26 59 26h109q33 0 59 -26l168 -183q14 -13 9 -28t-25 -15h-98q-31 0 -56 25l-110 102l-113 -102q-25 -25 -55 -25h-96q-21 0 -27 15zM115 45v1008q0 45 47 45h162q43 0 43 -45v-1008q0 -45 -43 -45h-162q-47 0 -47 45z" />
<glyph unicode="&#xef;" horiz-adv-x="483" d="M-53 1251v123q0 43 45 43h143q43 0 43 -43v-123q0 -23 -10 -33t-33 -10h-143q-45 0 -45 43zM115 45v1008q0 45 47 45h162q43 0 43 -45v-1008q0 -45 -43 -45h-162q-47 0 -47 45zM307 1251v123q0 43 45 43h144q43 0 43 -43v-123q0 -43 -43 -43h-144q-45 0 -45 43z" />
<glyph unicode="&#xf0;" horiz-adv-x="1058" d="M74 545q0 280 114 421.5t318 141.5q112 0 176 -49q-26 63 -80 135h-235q-39 0 -39 39v53q0 37 39 37h137q-12 13 -98 80q-14 9 -9 24t23 15h166q32 0 55 -23q52 -48 90 -96h172q37 0 37 -37v-53q0 -39 -37 -39h-90q84 -136 129 -301.5t45 -341.5q0 -569 -457 -569 q-223 0 -339.5 140.5t-116.5 422.5zM332 545q0 -186 48 -270.5t150 -84.5q101 0 150 85t49 270q0 186 -49 273t-150 87q-102 0 -150 -86t-48 -274z" />
<glyph unicode="&#xf1;" horiz-adv-x="1058" d="M106 45v1008q0 45 46 45h147q46 0 49 -39l6 -90q23 39 57 70.5t95 55t135 23.5q158 0 236.5 -97t78.5 -273v-703q0 -45 -45 -45h-163q-46 0 -46 45v653q0 97 -34 145t-117 48q-94 0 -143.5 -64t-49.5 -176v-606q0 -45 -45 -45h-161q-46 0 -46 45zM221 1264q0 155 135 155 q69 0 158 -35l61 -26q52 -19 76 -19q42 0 45 37l2 10q3 31 39 31h62q41 0 41 -59q0 -154 -135 -154q-74 0 -160 35l-60 27q-46 18 -73 18q-40 0 -47 -35l-3 -12q-6 -29 -40 -29h-60q-22 0 -31.5 12t-9.5 44z" />
<glyph unicode="&#xf2;" horiz-adv-x="1060" d="M74 549q0 -286 116.5 -426.5t339.5 -140.5t340 140.5t117 426.5t-117 427.5t-340 141.5t-339.5 -141.5t-116.5 -427.5zM276 1429q5 17 27 17h197q38 0 51 -33l80 -168q6 -16 -1 -26.5t-26 -10.5h-100q-35 0 -60 25l-159 164q-14 15 -9 32zM332 549q0 190 47.5 274 t150.5 84q102 0 150.5 -84.5t48.5 -273.5q0 -188 -49 -273.5t-150 -85.5q-102 0 -150 85t-48 274z" />
<glyph unicode="&#xf3;" horiz-adv-x="1060" d="M74 549q0 -286 116.5 -426.5t339.5 -140.5t340 140.5t117 426.5t-117 427.5t-340 141.5t-339.5 -141.5t-116.5 -427.5zM332 549q0 190 47.5 274t150.5 84q102 0 150.5 -84.5t48.5 -273.5q0 -188 -49 -273.5t-150 -85.5q-102 0 -150 85t-48 274zM430 1245l78 168 q16 33 51 33h199q21 0 25.5 -17t-9.5 -32l-160 -164q-22 -25 -59 -25h-98q-19 0 -26 10.5t-1 26.5z" />
<glyph unicode="&#xf4;" horiz-adv-x="1060" d="M74 549q0 -286 116.5 -426.5t339.5 -140.5t340 140.5t117 426.5t-117 427.5t-340 141.5t-339.5 -141.5t-116.5 -427.5zM239.5 1223q-5.5 15 8.5 28l168 183q23 26 59 26h109q33 0 59 -26l168 -183q14 -13 9 -28t-25 -15h-99q-30 0 -55 25l-111 102l-112 -102 q-25 -25 -56 -25h-96q-21 0 -26.5 15zM332 549q0 190 47.5 274t150.5 84q102 0 150.5 -84.5t48.5 -273.5q0 -188 -49 -273.5t-150 -85.5q-102 0 -150 85t-48 274z" />
<glyph unicode="&#xf5;" horiz-adv-x="1060" d="M74 549q0 286 116.5 427.5t339.5 141.5t340 -141.5t117 -427.5t-117 -426.5t-340 -140.5t-339.5 140.5t-116.5 426.5zM223 1264q0 155 135 155q69 0 158 -35l62 -26q52 -19 75 -19q42 0 45 37l2 10q3 31 39 31h62q41 0 41 -59q0 -154 -135 -154q-74 0 -160 35l-60 27 q-47 18 -73 18q-40 0 -47 -35l-2 -12q-6 -29 -41 -29h-60q-22 0 -31.5 12t-9.5 44zM332 549q0 -189 48 -274t150 -85q101 0 150 85.5t49 273.5q0 189 -48.5 273.5t-150.5 84.5q-103 0 -150.5 -84t-47.5 -274z" />
<glyph unicode="&#xf6;" horiz-adv-x="1060" d="M74 549q0 -286 116.5 -426.5t339.5 -140.5t340 140.5t117 426.5t-117 427.5t-340 141.5t-339.5 -141.5t-116.5 -427.5zM233 1251v123q0 43 46 43h143q43 0 43 -43v-123q0 -23 -10 -33t-33 -10h-143q-46 0 -46 43zM332 549q0 190 47.5 274t150.5 84q102 0 150.5 -84.5 t48.5 -273.5q0 -188 -49 -273.5t-150 -85.5q-102 0 -150 85t-48 274zM594 1251v123q0 43 45 43h143q43 0 43 -43v-123q0 -43 -43 -43h-143q-45 0 -45 43z" />
<glyph unicode="&#xf7;" d="M113 662v108q0 43 43 43h794q45 0 45 -43v-108q0 -46 -45 -46h-794q-43 0 -43 46zM426 246v176q0 45 47 45h162q47 0 47 -45v-176q0 -45 -45 -45h-166q-45 0 -45 45zM426 1008v174q0 25 11 36t36 11h162q25 0 36 -11t11 -36v-174q0 -47 -47 -47h-164q-45 0 -45 47z" />
<glyph unicode="&#xf8;" horiz-adv-x="1069" d="M78 549q0 286 117.5 427.5t339.5 141.5q172 0 280 -88l39 57q12 18 29 20.5t32 -11.5l41 -33q16 -12 18 -23.5t-9 -29.5l-56 -82q84 -137 84 -379q0 -284 -118 -425.5t-340 -141.5q-176 0 -281 86l-41 -60q-27 -33 -59 -8l-41 33q-29 26 -9 57l56 80q-82 138 -82 379z M334 553q0 -97 16 -156l318 445q-44 65 -133 65q-103 0 -152 -84t-49 -270zM401 254q52 -64 134 -64q101 0 150.5 84.5t49.5 270.5q0 98 -14 153z" />
<glyph unicode="&#xf9;" horiz-adv-x="1050" d="M100 342v711q0 45 45 45h162q45 0 45 -45v-654q0 -96 33 -145t115 -49q90 0 140 62.5t50 172.5v613q0 45 45 45h162q45 0 45 -45v-1008q0 -45 -45 -45h-149q-47 0 -50 39l-6 90q-82 -147 -274 -147q-318 0 -318 360zM276 1429q5 17 27 17h197q38 0 51 -33l80 -168 q6 -16 -1 -26.5t-26 -10.5h-100q-35 0 -60 25l-159 164q-14 15 -9 32z" />
<glyph unicode="&#xfa;" horiz-adv-x="1050" d="M100 342v711q0 45 45 45h162q45 0 45 -45v-654q0 -96 33 -145t115 -49q90 0 140 62.5t50 172.5v613q0 45 45 45h162q45 0 45 -45v-1008q0 -45 -45 -45h-149q-47 0 -50 39l-6 90q-82 -147 -274 -147q-318 0 -318 360zM418 1219q-7 11 0 26l78 168q16 33 51 33h198 q21 0 26 -17t-9 -32l-160 -164q-22 -25 -59 -25h-99q-19 0 -26 11z" />
<glyph unicode="&#xfb;" horiz-adv-x="1050" d="M100 342v711q0 45 45 45h162q45 0 45 -45v-654q0 -96 33 -145t115 -49q90 0 140 62.5t50 172.5v613q0 45 45 45h162q45 0 45 -45v-1008q0 -45 -45 -45h-149q-47 0 -50 39l-6 90q-82 -147 -274 -147q-318 0 -318 360zM235.5 1223q-5.5 15 8.5 28l168 183q23 26 59 26h109 q33 0 59 -26l168 -183q14 -13 9 -28t-25 -15h-99q-30 0 -55 25l-111 102l-112 -102q-25 -25 -56 -25h-96q-21 0 -26.5 15z" />
<glyph unicode="&#xfc;" horiz-adv-x="1050" d="M100 342v711q0 45 45 45h162q45 0 45 -45v-654q0 -96 33 -145t115 -49q90 0 140 62.5t50 172.5v613q0 45 45 45h162q45 0 45 -45v-1008q0 -45 -45 -45h-149q-47 0 -50 39l-6 90q-82 -147 -274 -147q-318 0 -318 360zM229 1251v123q0 43 45 43h144q43 0 43 -43v-123 q0 -23 -10 -33t-33 -10h-144q-45 0 -45 43zM590 1251v123q0 43 45 43h143q43 0 43 -43v-123q0 -43 -43 -43h-143q-45 0 -45 43z" />
<glyph unicode="&#xfd;" horiz-adv-x="954" d="M39 1047q-8 23 1 37t32 14h172q41 0 53 -45l143 -539l54 -240h6l47 240l115 539q9 45 51 45h170q23 0 33 -14t4 -37l-258 -963q-24 -91 -48.5 -146.5t-65.5 -98t-100.5 -60t-148.5 -17.5q-118 0 -172 21q-22 6 -31 16t-8 29l14 119q3 22 12.5 30t30.5 7q6 0 38.5 -5.5 t60.5 -5.5q100 0 100 86q0 29 -12 66zM381 1245l78 168q17 33 51 33h199q21 0 25.5 -17t-9.5 -32l-160 -164q-22 -25 -59 -25h-98q-19 0 -26 10.5t-1 26.5z" />
<glyph unicode="&#xfe;" d="M111 -180v1579q0 43 45 43h161q45 0 45 -43v-430q32 66 110 107.5t171 41.5q389 0 389 -569q0 -567 -389 -567q-96 0 -172.5 38t-108.5 105v-305q0 -45 -45 -45h-161q-45 0 -45 45zM360 549q0 -356 213 -356q104 0 152.5 82.5t48.5 273.5t-48.5 273.5t-152.5 82.5 q-213 0 -213 -356z" />
<glyph unicode="&#xff;" horiz-adv-x="954" d="M39 1047q-8 23 1 37t32 14h172q41 0 53 -45l143 -539l54 -240h6l47 240l115 539q9 45 51 45h170q23 0 33 -14t4 -37l-258 -963q-24 -91 -48.5 -146.5t-65.5 -98t-100.5 -60t-148.5 -17.5q-118 0 -172 21q-22 6 -31 16t-8 29l14 119q3 22 12.5 30t30.5 7q6 0 38.5 -5.5 t60.5 -5.5q100 0 100 86q0 29 -12 66zM180 1251v123q0 43 45 43h144q43 0 43 -43v-123q0 -23 -10 -33t-33 -10h-144q-45 0 -45 43zM541 1251v123q0 43 45 43h143q43 0 43 -43v-123q0 -43 -43 -43h-143q-45 0 -45 43z" />
<glyph unicode="&#x152;" horiz-adv-x="1632" d="M111 721q0 202 37 341.5t114.5 223t186.5 120t262 36.5h786q49 0 49 -47v-144q0 -49 -49 -49h-438v-352h418q47 0 47 -49v-131q0 -49 -47 -49h-418v-381h446q25 0 36 -11t11 -36v-144q0 -26 -11 -37.5t-36 -11.5h-798q-152 0 -260.5 37t-185 120.5t-113.5 223t-37 340.5z M383 721q0 -141 20 -235t63 -147.5t101.5 -75t143.5 -21.5h84v958h-80q-86 0 -145 -21t-102.5 -74t-64 -147t-20.5 -237z" />
<glyph unicode="&#x153;" horiz-adv-x="1626" d="M74 549q0 284 113.5 426.5t326.5 142.5q220 0 322 -157q102 157 311 157q199 0 302 -133.5t103 -368.5v-110q0 -25 -11.5 -35t-37.5 -10h-549q10 -140 79 -210.5t190 -70.5q109 0 209 41q22 9 37 1.5t20 -29.5l24 -105q8 -37 -30 -53q-128 -55 -279 -55q-122 0 -214.5 43 t-147.5 122q-47 -78 -131 -120.5t-193 -42.5q-216 0 -330 141.5t-114 425.5zM332 549q0 -188 46 -273.5t142 -85.5q97 0 144 85.5t47 273.5q0 186 -47 272t-144 86q-96 0 -142 -85.5t-46 -272.5zM952 633h365v16q0 128 -42 200.5t-130 72.5q-181 0 -193 -289z" />
<glyph unicode="&#x178;" horiz-adv-x="1155" d="M43 1423q9 19 37 19h184q46 0 62 -43l178 -424l71 -205h3l73 205l178 424q16 43 62 43h184q28 0 37 -19t-2 -39l-397 -845v-490q0 -49 -49 -49h-175q-47 0 -47 49v490l-397 845q-11 20 -2 39zM274 1579v119q0 45 43 45h150q43 0 43 -45v-119q0 -45 -43 -45h-150 q-43 0 -43 45zM643 1579v119q0 45 45 45h148q43 0 43 -45v-119q0 -45 -43 -45h-148q-45 0 -45 45z" />
<glyph unicode="&#x2c6;" horiz-adv-x="632" d="M26.5 1223q-5.5 15 8.5 28l168 183q23 26 59 26h109q33 0 59 -26l168 -183q14 -13 9 -28t-25 -15h-99q-30 0 -55 25l-111 102l-112 -102q-25 -25 -55 -25h-97q-21 0 -26.5 15z" />
<glyph unicode="&#x2dc;" horiz-adv-x="632" d="M8 1264q0 155 135 155q69 0 158 -35l61 -26q52 -19 76 -19q42 0 45 37l2 10q3 31 39 31h62q41 0 41 -59q0 -154 -135 -154q-74 0 -160 35l-60 27q-47 18 -73 18q-40 0 -47 -35l-2 -12q-6 -29 -41 -29h-60q-22 0 -31.5 12t-9.5 44z" />
<glyph unicode="&#x2000;" horiz-adv-x="948" />
<glyph unicode="&#x2001;" horiz-adv-x="1896" />
<glyph unicode="&#x2002;" horiz-adv-x="948" />
<glyph unicode="&#x2003;" horiz-adv-x="1896" />
<glyph unicode="&#x2004;" horiz-adv-x="632" />
<glyph unicode="&#x2005;" horiz-adv-x="474" />
<glyph unicode="&#x2006;" horiz-adv-x="316" />
<glyph unicode="&#x2007;" horiz-adv-x="316" />
<glyph unicode="&#x2008;" horiz-adv-x="237" />
<glyph unicode="&#x2009;" horiz-adv-x="379" />
<glyph unicode="&#x200a;" horiz-adv-x="105" />
<glyph unicode="&#x2010;" horiz-adv-x="688" d="M72 506v123q0 23 10 33t33 10h456q45 0 45 -43v-123q0 -43 -45 -43h-456q-23 0 -33 10t-10 33z" />
<glyph unicode="&#x2011;" horiz-adv-x="688" d="M72 506v123q0 23 10 33t33 10h456q45 0 45 -43v-123q0 -43 -45 -43h-456q-23 0 -33 10t-10 33z" />
<glyph unicode="&#x2012;" horiz-adv-x="688" d="M72 506v123q0 23 10 33t33 10h456q45 0 45 -43v-123q0 -43 -45 -43h-456q-23 0 -33 10t-10 33z" />
<glyph unicode="&#x2013;" horiz-adv-x="931" d="M72 506v123q0 43 45 43h700q43 0 43 -43v-123q0 -43 -43 -43h-702q-43 0 -43 43z" />
<glyph unicode="&#x2014;" horiz-adv-x="1357" d="M72 506v123q0 43 45 43h1124q47 0 47 -43v-123q0 -43 -47 -43h-1126q-43 0 -43 43z" />
<glyph unicode="&#x2018;" horiz-adv-x="442" d="M96 989v168q0 37 10 57l91 205q16 29 43 29h59q16 0 22 -11.5t1 -27.5l-68 -192h57q45 0 45 -46v-182q0 -45 -47 -45h-166q-26 0 -36.5 10.5t-10.5 34.5z" />
<glyph unicode="&#x2019;" horiz-adv-x="442" d="M88 1214v181q0 47 47 47h166q49 0 49 -47v-166q0 -28 -12 -58l-92 -204q-13 -29 -43 -29h-58q-16 0 -21.5 11.5t-0.5 27.5l65 192h-55q-45 0 -45 45z" />
<glyph unicode="&#x201a;" horiz-adv-x="442" d="M88 45v180q0 47 47 47h166q49 0 49 -47v-166q0 -27 -12 -57l-92 -205q-12 -28 -43 -28h-58q-33 0 -22 38l65 193h-55q-45 0 -45 45z" />
<glyph unicode="&#x201c;" horiz-adv-x="817" d="M96 991v168q0 38 10 58l91 204q12 27 43 27h59q16 0 22 -10.5t1 -26.5l-66 -192h55q45 0 45 -48v-180q0 -45 -47 -45h-166q-26 0 -36.5 10.5t-10.5 34.5zM467 991v168q0 28 12 58l92 204q7 15 15 21t26 6h60q33 0 22 -37l-65 -192h53q47 0 47 -48v-180q0 -45 -47 -45 h-168q-47 0 -47 45z" />
<glyph unicode="&#x201d;" horiz-adv-x="817" d="M88 1217v180q0 45 47 45h166q49 0 49 -45v-166q0 -30 -12 -57l-92 -205q-12 -29 -43 -29h-58q-16 0 -21.5 11t-0.5 26l65 194h-55q-45 0 -45 46zM461 1217v180q0 45 47 45h166q47 0 47 -45v-166q0 -35 -10 -57l-93 -205q-6 -16 -14.5 -22.5t-25.5 -6.5h-60q-34 0 -22 37 l65 194h-55q-45 0 -45 46z" />
<glyph unicode="&#x201e;" horiz-adv-x="817" d="M88 45v180q0 45 47 45h166q49 0 49 -45v-166q0 -30 -12 -57l-92 -205q-11 -28 -43 -28h-58q-16 0 -21.5 10.5t-0.5 25.5l65 195h-55q-24 0 -34.5 10.5t-10.5 34.5zM461 45v180q0 45 47 45h166q47 0 47 -45v-166q0 -34 -10 -57l-93 -205q-11 -28 -40 -28h-60q-34 0 -22 36 l65 195h-55q-24 0 -34.5 10.5t-10.5 34.5z" />
<glyph unicode="&#x2022;" horiz-adv-x="759" d="M96 559q0 124 81 204.5t204 80.5q122 0 202.5 -80.5t80.5 -204.5t-81 -204.5t-204 -80.5q-122 0 -202.5 80.5t-80.5 204.5z" />
<glyph unicode="&#x2026;" horiz-adv-x="1363" d="M96 47v186q0 46 47 46h168q47 0 47 -46v-186q0 -47 -45 -47h-172q-45 0 -45 47zM551 47v186q0 46 47 46h168q47 0 47 -46v-186q0 -47 -45 -47h-172q-45 0 -45 47zM1006 47v186q0 46 49 46h166q47 0 47 -46v-186q0 -47 -45 -47h-170q-47 0 -47 47z" />
<glyph unicode="&#x202f;" horiz-adv-x="379" />
<glyph unicode="&#x2039;" horiz-adv-x="516" d="M59 580q0 10 7 22l139 283q17 33 53 33h141q21 0 28.5 -13.5t-1.5 -32.5l-147 -292l147 -291q9 -20 2 -32.5t-29 -12.5h-141q-22 0 -33 7t-20 25l-139 283q-7 14 -7 21z" />
<glyph unicode="&#x203a;" horiz-adv-x="516" d="M89.5 256.5q-7.5 12.5 2.5 32.5l146 291l-146 292q-10 20 -2.5 33t29.5 13h139q21 0 31.5 -8t19.5 -25l142 -283q6 -15 6 -22q0 -9 -6 -21l-142 -283q-8 -18 -18.5 -25t-32.5 -7h-139q-22 0 -29.5 12.5z" />
<glyph unicode="&#x205f;" horiz-adv-x="474" />
<glyph unicode="&#x20ac;" horiz-adv-x="1155" d="M41 539v71q0 37 39 37h104q-2 25 -2 76q0 54 2 74h-104q-39 0 -39 39v71q0 37 39 37h117q40 246 184 383t395 137q171 0 295 -61q22 -10 29.5 -22t-0.5 -35l-45 -127q-8 -24 -21 -31.5t-41 0.5q-107 35 -182 35q-147 0 -228 -75.5t-108 -203.5h428q38 0 29 -41l-21 -69 q-11 -37 -49 -37h-405q-2 -23 -2 -74q0 -53 2 -76h352q39 0 27 -41l-19 -67q-11 -37 -49 -37h-293q62 -279 338 -279q75 0 184 37q25 9 38.5 0.5t21.5 -33.5l47 -129q7 -23 -1 -34.5t-28 -20.5q-47 -26 -126 -43.5t-171 -17.5q-253 0 -398 137.5t-183 382.5h-117 q-39 0 -39 37z" />
<glyph unicode="&#x2122;" horiz-adv-x="1312" d="M57 1333v80q0 29 31 29h391q31 0 31 -29v-80q0 -33 -31 -33h-114v-497q0 -31 -31 -31h-101q-32 0 -32 31v497h-113q-31 0 -31 33zM594 803v608q0 31 31 31h104q25 0 37 -21l147 -276l148 276q12 21 37 21h104q31 0 31 -31v-608q0 -31 -33 -31h-96q-31 0 -31 31v391 l-131 -238q-16 -20 -29 -20q-16 0 -28 20l-131 238v-391q0 -31 -31 -31h-98q-31 0 -31 31z" />
<glyph unicode="&#x25fc;" horiz-adv-x="1095" d="M0 0v1096h1096v-1096h-1096z" />
</font>
</defs>
</svg>
